<svg width="274" height="65" viewBox="0 0 274 65" fill="none" xmlns="http://www.w3.org/2000/svg">
<path d="M3.66113 44V41.416L7.00391 40.8418V17.3193L3.66113 16.7451V14.1406H14.3867V16.7451L11.0439 17.3193V40.8418L14.3867 41.416V44H3.66113ZM21.3659 44V41.416L24.7087 40.8418V24.9893L21.3659 24.415V21.8105H28.3181L28.6052 25.1123C29.3435 23.9365 30.2663 23.0273 31.3738 22.3848C32.4948 21.7285 33.7663 21.4004 35.1882 21.4004C37.5808 21.4004 39.4333 22.1045 40.7458 23.5127C42.0583 24.9072 42.7146 27.0674 42.7146 29.9932V40.8418L46.0573 41.416V44H35.3318V41.416L38.6745 40.8418V30.0752C38.6745 28.1201 38.2849 26.7324 37.5056 25.9121C36.74 25.0918 35.5642 24.6816 33.9782 24.6816C32.8161 24.6816 31.7839 24.9619 30.8816 25.5225C29.9929 26.083 29.282 26.8486 28.7488 27.8193V40.8418L32.0915 41.416V44H21.3659ZM59.7221 44.3486C58.0815 44.3486 56.7758 43.8701 55.8051 42.9131C54.8481 41.9424 54.3696 40.3975 54.3696 38.2783V24.8047H50.8627V21.8105H54.3696V16.458H58.4096V21.8105H63.2289V24.8047H58.4096V38.2783C58.4096 39.3447 58.6215 40.1309 59.0454 40.6367C59.4692 41.1426 60.0366 41.3955 60.7475 41.3955C61.226 41.3955 61.7592 41.3545 62.3471 41.2725C62.935 41.1768 63.393 41.0947 63.7211 41.0264L64.2748 43.6719C63.687 43.8496 62.9623 44.0068 62.101 44.1436C61.2534 44.2803 60.4604 44.3486 59.7221 44.3486ZM80.339 44.4307C78.2882 44.4307 76.5041 43.9658 74.9865 43.0361C73.4689 42.0928 72.2931 40.7871 71.4591 39.1191C70.6388 37.4512 70.2287 35.5234 70.2287 33.3359V32.4336C70.2287 30.3281 70.6593 28.4482 71.5207 26.7939C72.3957 25.126 73.5509 23.8135 74.9865 22.8564C76.4357 21.8857 78.0148 21.4004 79.7238 21.4004C81.7199 21.4004 83.3878 21.8105 84.7277 22.6309C86.0812 23.4512 87.0998 24.6064 87.7834 26.0967C88.4669 27.5732 88.8087 29.3164 88.8087 31.3262V33.8486H74.4123L74.3507 33.9512C74.3781 35.373 74.6242 36.6377 75.089 37.7451C75.5675 38.8389 76.2511 39.7002 77.1398 40.3291C78.0285 40.958 79.0949 41.2725 80.339 41.2725C81.7062 41.2725 82.9025 41.0811 83.9279 40.6982C84.9669 40.3018 85.8625 39.7617 86.6144 39.0781L88.1935 41.7031C87.4005 42.4688 86.3478 43.1182 85.0353 43.6514C83.7365 44.1709 82.1711 44.4307 80.339 44.4307ZM74.5353 30.6904H84.7687V30.1572C84.7687 29.0908 84.5773 28.1406 84.1945 27.3066C83.8253 26.459 83.2648 25.7959 82.5128 25.3174C81.7746 24.8252 80.8449 24.5791 79.7238 24.5791C78.8214 24.5791 78.0011 24.8457 77.2628 25.3789C76.5246 25.8984 75.9162 26.6094 75.4377 27.5117C74.9591 28.4141 74.6447 29.4395 74.4943 30.5879L74.5353 30.6904ZM95.747 44V41.416L99.0897 40.8418V24.9893L95.747 24.415V21.8105H102.699L102.986 25.1123C103.724 23.9365 104.647 23.0273 105.755 22.3848C106.876 21.7285 108.147 21.4004 109.569 21.4004C111.962 21.4004 113.814 22.1045 115.127 23.5127C116.439 24.9072 117.096 27.0674 117.096 29.9932V40.8418L120.438 41.416V44H109.713V41.416L113.056 40.8418V30.0752C113.056 28.1201 112.666 26.7324 111.887 25.9121C111.121 25.0918 109.945 24.6816 108.359 24.6816C107.197 24.6816 106.165 24.9619 105.263 25.5225C104.374 26.083 103.663 26.8486 103.13 27.8193V40.8418L106.473 41.416V44H95.747ZM136.072 44.4307C134.582 44.4307 133.187 44.2803 131.888 43.9795C130.589 43.6787 129.209 43.2139 127.746 42.585L127.705 37.3145H130.76L131.519 40.4932C132.285 40.8076 133.023 41.04 133.734 41.1904C134.459 41.3271 135.238 41.3955 136.072 41.3955C137.713 41.3955 138.888 41.0811 139.599 40.4521C140.31 39.8232 140.666 39.0439 140.666 38.1143C140.666 37.2393 140.303 36.501 139.579 35.8994C138.868 35.2842 137.569 34.7646 135.682 34.3408C133.003 33.7256 131.027 32.9053 129.755 31.8799C128.498 30.8408 127.869 29.46 127.869 27.7373C127.869 26.5342 128.217 25.4609 128.915 24.5176C129.612 23.5605 130.583 22.8018 131.827 22.2412C133.071 21.6807 134.52 21.4004 136.174 21.4004C137.856 21.4004 139.292 21.5918 140.481 21.9746C141.684 22.3574 142.73 22.8701 143.619 23.5127L143.824 28.5781H140.789L140.132 25.625C139.654 25.2695 139.087 24.9961 138.43 24.8047C137.774 24.6133 137.022 24.5176 136.174 24.5176C134.917 24.5176 133.891 24.8115 133.098 25.3994C132.319 25.9873 131.929 26.7256 131.929 27.6143C131.929 28.1338 132.039 28.585 132.257 28.9678C132.49 29.3506 132.927 29.6992 133.57 30.0137C134.213 30.3145 135.156 30.6152 136.4 30.916C139.49 31.6406 141.643 32.5635 142.86 33.6846C144.09 34.8057 144.706 36.1865 144.706 37.8271C144.706 39.7002 144.008 41.2725 142.614 42.5439C141.233 43.8018 139.052 44.4307 136.072 44.4307ZM161.939 44.4307C159.888 44.4307 158.104 43.9658 156.586 43.0361C155.069 42.0928 153.893 40.7871 153.059 39.1191C152.239 37.4512 151.828 35.5234 151.828 33.3359V32.4336C151.828 30.3281 152.259 28.4482 153.12 26.7939C153.995 25.126 155.151 23.8135 156.586 22.8564C158.035 21.8857 159.615 21.4004 161.324 21.4004C163.32 21.4004 164.988 21.8105 166.327 22.6309C167.681 23.4512 168.7 24.6064 169.383 26.0967C170.067 27.5732 170.409 29.3164 170.409 31.3262V33.8486H156.012L155.951 33.9512C155.978 35.373 156.224 36.6377 156.689 37.7451C157.167 38.8389 157.851 39.7002 158.74 40.3291C159.628 40.958 160.695 41.2725 161.939 41.2725C163.306 41.2725 164.502 41.0811 165.528 40.6982C166.567 40.3018 167.462 39.7617 168.214 39.0781L169.793 41.7031C169 42.4688 167.948 43.1182 166.635 43.6514C165.336 44.1709 163.771 44.4307 161.939 44.4307ZM156.135 30.6904H166.368V30.1572C166.368 29.0908 166.177 28.1406 165.794 27.3066C165.425 26.459 164.865 25.7959 164.113 25.3174C163.374 24.8252 162.445 24.5791 161.324 24.5791C160.421 24.5791 159.601 24.8457 158.863 25.3789C158.124 25.8984 157.516 26.6094 157.037 27.5117C156.559 28.4141 156.244 29.4395 156.094 30.5879L156.135 30.6904Z" fill="white"/>
<path d="M7.46484 58.8965H8.30566C8.2373 59.5664 8.05273 60.1452 7.75195 60.6328C7.45117 61.1159 7.04102 61.4873 6.52148 61.7471C6.00195 62.0068 5.37533 62.1367 4.6416 62.1367C4.0765 62.1367 3.5638 62.0296 3.10352 61.8154C2.64779 61.6012 2.25586 61.2982 1.92773 60.9062C1.59961 60.5098 1.34668 60.0358 1.16895 59.4844C0.991211 58.9329 0.902344 58.32 0.902344 57.6455V56.4014C0.902344 55.7269 0.991211 55.1162 1.16895 54.5693C1.34668 54.0179 1.60189 53.5439 1.93457 53.1475C2.26725 52.751 2.66602 52.4456 3.13086 52.2314C3.5957 52.0173 4.11979 51.9102 4.70312 51.9102C5.40951 51.9102 6.02018 52.04 6.53516 52.2998C7.05013 52.555 7.45573 52.9242 7.75195 53.4072C8.05273 53.8903 8.2373 54.4736 8.30566 55.1572H7.46484C7.40104 54.6195 7.25977 54.1637 7.04102 53.79C6.82227 53.4163 6.51921 53.1315 6.13184 52.9355C5.74902 52.735 5.27279 52.6348 4.70312 52.6348C4.23828 52.6348 3.82357 52.7236 3.45898 52.9014C3.0944 53.0791 2.78451 53.3343 2.5293 53.667C2.27409 53.9951 2.07812 54.3893 1.94141 54.8496C1.80924 55.3099 1.74316 55.8226 1.74316 56.3877V57.6455C1.74316 58.1924 1.80697 58.696 1.93457 59.1562C2.06217 59.6165 2.24902 60.0153 2.49512 60.3525C2.74577 60.6898 3.05111 60.9518 3.41113 61.1387C3.77116 61.3255 4.18132 61.4189 4.6416 61.4189C5.22949 61.4189 5.7194 61.3255 6.11133 61.1387C6.50781 60.9473 6.81543 60.6647 7.03418 60.291C7.25293 59.9173 7.39648 59.4525 7.46484 58.8965ZM9.71387 58.418V58.1924C9.71387 57.6546 9.79134 57.1579 9.94629 56.7021C10.1012 56.2464 10.3223 55.8522 10.6094 55.5195C10.901 55.1868 11.2497 54.9294 11.6553 54.7471C12.0609 54.5602 12.512 54.4668 13.0088 54.4668C13.5101 54.4668 13.9635 54.5602 14.3691 54.7471C14.7747 54.9294 15.1234 55.1868 15.415 55.5195C15.7067 55.8522 15.93 56.2464 16.085 56.7021C16.2399 57.1579 16.3174 57.6546 16.3174 58.1924V58.418C16.3174 58.9557 16.2399 59.4525 16.085 59.9082C15.93 60.3594 15.7067 60.7513 15.415 61.084C15.1279 61.4167 14.7816 61.6764 14.376 61.8633C13.9704 62.0456 13.5192 62.1367 13.0225 62.1367C12.5212 62.1367 12.0677 62.0456 11.6621 61.8633C11.2565 61.6764 10.9079 61.4167 10.6162 61.084C10.3245 60.7513 10.1012 60.3594 9.94629 59.9082C9.79134 59.4525 9.71387 58.9557 9.71387 58.418ZM10.5273 58.1924V58.418C10.5273 58.8236 10.582 59.2087 10.6914 59.5732C10.8008 59.9333 10.9603 60.2546 11.1699 60.5371C11.3796 60.8151 11.6393 61.0339 11.9492 61.1934C12.2591 61.3529 12.6169 61.4326 13.0225 61.4326C13.4235 61.4326 13.7767 61.3529 14.082 61.1934C14.3919 61.0339 14.6517 60.8151 14.8613 60.5371C15.071 60.2546 15.2282 59.9333 15.333 59.5732C15.4424 59.2087 15.4971 58.8236 15.4971 58.418V58.1924C15.4971 57.7913 15.4424 57.4108 15.333 57.0508C15.2282 56.6908 15.0687 56.3695 14.8545 56.0869C14.6449 55.8044 14.3851 55.5811 14.0752 55.417C13.7653 55.2529 13.4098 55.1709 13.0088 55.1709C12.6077 55.1709 12.2523 55.2529 11.9424 55.417C11.637 55.5811 11.3773 55.8044 11.1631 56.0869C10.9535 56.3695 10.7939 56.6908 10.6846 57.0508C10.5798 57.4108 10.5273 57.7913 10.5273 58.1924ZM18.8262 56.1826V62H18.0127V54.6035H18.792L18.8262 56.1826ZM18.6416 57.8438L18.2793 57.6387C18.3066 57.2012 18.3955 56.791 18.5459 56.4082C18.6963 56.0254 18.8991 55.6882 19.1543 55.3965C19.4141 55.1048 19.7171 54.877 20.0635 54.7129C20.4144 54.5488 20.8018 54.4668 21.2256 54.4668C21.5947 54.4668 21.9251 54.5169 22.2168 54.6172C22.5085 54.7174 22.7568 54.877 22.9619 55.0957C23.167 55.3145 23.3219 55.5947 23.4268 55.9365C23.5361 56.2783 23.5908 56.6953 23.5908 57.1875V62H22.7705V57.1807C22.7705 56.6702 22.6999 56.2715 22.5586 55.9844C22.4173 55.6927 22.2168 55.4854 21.957 55.3623C21.6973 55.2393 21.3896 55.1777 21.0342 55.1777C20.6423 55.1777 20.2982 55.2643 20.002 55.4375C19.7103 55.6061 19.4642 55.8271 19.2637 56.1006C19.0677 56.3695 18.9173 56.6589 18.8125 56.9688C18.7077 57.2741 18.6507 57.5658 18.6416 57.8438ZM30.1396 60.1133C30.1396 59.9128 30.0895 59.7145 29.9893 59.5186C29.889 59.3226 29.6953 59.1426 29.4082 58.9785C29.1257 58.8145 28.7087 58.6755 28.1572 58.5615C27.7471 58.4704 27.3802 58.3678 27.0566 58.2539C26.7376 58.14 26.4688 58.0033 26.25 57.8438C26.0312 57.6842 25.8649 57.4928 25.751 57.2695C25.637 57.0462 25.5801 56.7819 25.5801 56.4766C25.5801 56.2031 25.6393 55.9456 25.7578 55.7041C25.8809 55.458 26.054 55.2438 26.2773 55.0615C26.5052 54.8747 26.7786 54.7288 27.0977 54.624C27.4212 54.5192 27.7835 54.4668 28.1846 54.4668C28.7542 54.4668 29.2419 54.5648 29.6475 54.7607C30.0576 54.9521 30.3698 55.2142 30.584 55.5469C30.8027 55.8796 30.9121 56.2555 30.9121 56.6748H30.0986C30.0986 56.4196 30.0234 56.1781 29.873 55.9502C29.7272 55.7223 29.5107 55.5355 29.2236 55.3896C28.9411 55.2438 28.5947 55.1709 28.1846 55.1709C27.7607 55.1709 27.4167 55.2347 27.1523 55.3623C26.888 55.4899 26.6943 55.6517 26.5713 55.8477C26.4528 56.0436 26.3936 56.2464 26.3936 56.4561C26.3936 56.6201 26.4186 56.7705 26.4688 56.9072C26.5234 57.0394 26.6191 57.1624 26.7559 57.2764C26.8971 57.3903 27.0977 57.4974 27.3574 57.5977C27.6172 57.6979 27.9544 57.7959 28.3691 57.8916C28.9661 58.0238 29.4538 58.1855 29.832 58.377C30.2148 58.5638 30.4974 58.7962 30.6797 59.0742C30.862 59.3477 30.9531 59.6803 30.9531 60.0723C30.9531 60.3776 30.8893 60.6579 30.7617 60.9131C30.6341 61.1637 30.4495 61.3802 30.208 61.5625C29.971 61.7448 29.6839 61.8861 29.3467 61.9863C29.014 62.0866 28.6403 62.1367 28.2256 62.1367C27.6012 62.1367 27.0726 62.0342 26.6396 61.8291C26.2113 61.6195 25.8854 61.346 25.6621 61.0088C25.4434 60.667 25.334 60.3047 25.334 59.9219H26.1475C26.1748 60.3047 26.2956 60.6077 26.5098 60.8311C26.724 61.0498 26.986 61.2048 27.2959 61.2959C27.6104 61.387 27.9202 61.4326 28.2256 61.4326C28.6449 61.4326 28.9958 61.3711 29.2783 61.248C29.5609 61.125 29.7751 60.9632 29.9209 60.7627C30.0667 60.5622 30.1396 60.3457 30.1396 60.1133ZM37.543 60.291V54.6035H38.3633V62H37.5771L37.543 60.291ZM37.6934 58.9238L38.1172 58.9102C38.1172 59.375 38.0625 59.8034 37.9531 60.1953C37.8438 60.5872 37.6729 60.929 37.4404 61.2207C37.208 61.5124 36.9072 61.738 36.5381 61.8975C36.1689 62.057 35.7246 62.1367 35.2051 62.1367C34.8451 62.1367 34.5146 62.0866 34.2139 61.9863C33.9176 61.8815 33.6624 61.7174 33.4482 61.4941C33.234 61.2708 33.0677 60.9814 32.9492 60.626C32.8353 60.2705 32.7783 59.8398 32.7783 59.334V54.6035H33.5918V59.3477C33.5918 59.7441 33.6351 60.0745 33.7217 60.3389C33.8128 60.6032 33.9359 60.8151 34.0908 60.9746C34.2503 61.1341 34.4326 61.248 34.6377 61.3164C34.8428 61.3848 35.0638 61.4189 35.3008 61.4189C35.9023 61.4189 36.3763 61.3027 36.7227 61.0703C37.0736 60.8379 37.3219 60.5326 37.4678 60.1543C37.6182 59.7715 37.6934 59.3613 37.6934 58.9238ZM41.4121 51.5V62H40.5986V51.5H41.4121ZM46.4434 54.6035V55.2734H42.7383V54.6035H46.4434ZM44.0986 52.7031H44.9121V60.2021C44.9121 60.5439 44.9577 60.8014 45.0488 60.9746C45.14 61.1478 45.2585 61.264 45.4043 61.3232C45.5501 61.3825 45.7074 61.4121 45.876 61.4121C45.999 61.4121 46.1175 61.4053 46.2314 61.3916C46.3454 61.3734 46.4479 61.3551 46.5391 61.3369L46.5732 62.0273C46.473 62.0592 46.3431 62.0843 46.1836 62.1025C46.0241 62.1253 45.8646 62.1367 45.7051 62.1367C45.3906 62.1367 45.1126 62.0798 44.8711 61.9658C44.6296 61.8473 44.4404 61.6468 44.3037 61.3643C44.167 61.0771 44.0986 60.6875 44.0986 60.1953V52.7031ZM47.5713 58.418V58.1924C47.5713 57.6546 47.6488 57.1579 47.8037 56.7021C47.9587 56.2464 48.1797 55.8522 48.4668 55.5195C48.7585 55.1868 49.1071 54.9294 49.5127 54.7471C49.9183 54.5602 50.3695 54.4668 50.8662 54.4668C51.3675 54.4668 51.821 54.5602 52.2266 54.7471C52.6322 54.9294 52.9808 55.1868 53.2725 55.5195C53.5641 55.8522 53.7874 56.2464 53.9424 56.7021C54.0973 57.1579 54.1748 57.6546 54.1748 58.1924V58.418C54.1748 58.9557 54.0973 59.4525 53.9424 59.9082C53.7874 60.3594 53.5641 60.7513 53.2725 61.084C52.9854 61.4167 52.639 61.6764 52.2334 61.8633C51.8278 62.0456 51.3766 62.1367 50.8799 62.1367C50.3786 62.1367 49.9251 62.0456 49.5195 61.8633C49.1139 61.6764 48.7653 61.4167 48.4736 61.084C48.182 60.7513 47.9587 60.3594 47.8037 59.9082C47.6488 59.4525 47.5713 58.9557 47.5713 58.418ZM48.3848 58.1924V58.418C48.3848 58.8236 48.4395 59.2087 48.5488 59.5732C48.6582 59.9333 48.8177 60.2546 49.0273 60.5371C49.237 60.8151 49.4967 61.0339 49.8066 61.1934C50.1165 61.3529 50.4743 61.4326 50.8799 61.4326C51.2809 61.4326 51.6341 61.3529 51.9395 61.1934C52.2493 61.0339 52.5091 60.8151 52.7188 60.5371C52.9284 60.2546 53.0856 59.9333 53.1904 59.5732C53.2998 59.2087 53.3545 58.8236 53.3545 58.418V58.1924C53.3545 57.7913 53.2998 57.4108 53.1904 57.0508C53.0856 56.6908 52.9261 56.3695 52.7119 56.0869C52.5023 55.8044 52.2425 55.5811 51.9326 55.417C51.6227 55.2529 51.2673 55.1709 50.8662 55.1709C50.4652 55.1709 50.1097 55.2529 49.7998 55.417C49.4945 55.5811 49.2347 55.8044 49.0205 56.0869C48.8109 56.3695 48.6514 56.6908 48.542 57.0508C48.4372 57.4108 48.3848 57.7913 48.3848 58.1924ZM56.6836 55.8271V62H55.8701V54.6035H56.6631L56.6836 55.8271ZM59.3018 54.5488L59.2812 55.3008C59.1901 55.2871 59.1012 55.2757 59.0146 55.2666C58.9281 55.2575 58.8346 55.2529 58.7344 55.2529C58.3789 55.2529 58.0667 55.319 57.7979 55.4512C57.5335 55.5788 57.3102 55.7588 57.1279 55.9912C56.9456 56.2191 56.8066 56.488 56.7109 56.7979C56.6152 57.1032 56.5605 57.4313 56.5469 57.7822L56.2461 57.8984C56.2461 57.4154 56.2962 56.9665 56.3965 56.5518C56.4967 56.137 56.6494 55.7747 56.8545 55.4648C57.0641 55.1504 57.3262 54.9066 57.6406 54.7334C57.9596 54.5557 58.3333 54.4668 58.7617 54.4668C58.8665 54.4668 58.9691 54.4759 59.0693 54.4941C59.1742 54.5078 59.2516 54.526 59.3018 54.5488ZM61.4961 54.6035V62H60.6826V54.6035H61.4961ZM60.5391 52.4639C60.5391 52.3089 60.5869 52.179 60.6826 52.0742C60.7829 51.9648 60.9196 51.9102 61.0928 51.9102C61.266 51.9102 61.4027 51.9648 61.5029 52.0742C61.6077 52.179 61.6602 52.3089 61.6602 52.4639C61.6602 52.6143 61.6077 52.7441 61.5029 52.8535C61.4027 52.9583 61.266 53.0107 61.0928 53.0107C60.9196 53.0107 60.7829 52.9583 60.6826 52.8535C60.5869 52.7441 60.5391 52.6143 60.5391 52.4639ZM68.2295 60.6738V56.8594C68.2295 56.5085 68.1566 56.2054 68.0107 55.9502C67.8649 55.695 67.6507 55.499 67.3682 55.3623C67.0856 55.2256 66.737 55.1572 66.3223 55.1572C65.9395 55.1572 65.5977 55.2256 65.2969 55.3623C65.0007 55.4945 64.766 55.6745 64.5928 55.9023C64.4242 56.1257 64.3398 56.374 64.3398 56.6475L63.5195 56.6406C63.5195 56.3626 63.5879 56.0938 63.7246 55.834C63.8613 55.5742 64.055 55.3418 64.3057 55.1367C64.5563 54.9316 64.8548 54.7699 65.2012 54.6514C65.5521 54.5283 65.9372 54.4668 66.3564 54.4668C66.8851 54.4668 67.3499 54.5557 67.751 54.7334C68.1566 54.9111 68.4733 55.1777 68.7012 55.5332C68.929 55.8887 69.043 56.3353 69.043 56.873V60.4482C69.043 60.7035 69.0612 60.9678 69.0977 61.2412C69.1387 61.5146 69.1956 61.7402 69.2686 61.918V62H68.4004C68.3457 61.8359 68.3024 61.6309 68.2705 61.3848C68.2432 61.1341 68.2295 60.8971 68.2295 60.6738ZM68.4209 57.6934L68.4346 58.3223H66.8281C66.4089 58.3223 66.0329 58.361 65.7002 58.4385C65.3721 58.5114 65.0941 58.6208 64.8662 58.7666C64.6383 58.9079 64.4629 59.0788 64.3398 59.2793C64.2214 59.4798 64.1621 59.7077 64.1621 59.9629C64.1621 60.2272 64.2282 60.4688 64.3604 60.6875C64.4971 60.9062 64.6885 61.0817 64.9346 61.2139C65.1852 61.3415 65.4814 61.4053 65.8232 61.4053C66.279 61.4053 66.68 61.321 67.0264 61.1523C67.3773 60.9837 67.6667 60.7627 67.8945 60.4893C68.1224 60.2158 68.2751 59.9173 68.3525 59.5938L68.708 60.0654C68.6488 60.2933 68.5394 60.528 68.3799 60.7695C68.2249 61.0065 68.0221 61.2298 67.7715 61.4395C67.5208 61.6445 67.2246 61.8132 66.8828 61.9453C66.5456 62.0729 66.1628 62.1367 65.7344 62.1367C65.2513 62.1367 64.8298 62.0456 64.4697 61.8633C64.1143 61.681 63.8363 61.4326 63.6357 61.1182C63.4398 60.7992 63.3418 60.4391 63.3418 60.0381C63.3418 59.6735 63.4193 59.3477 63.5742 59.0605C63.7292 58.7689 63.9525 58.5228 64.2441 58.3223C64.5404 58.1172 64.8958 57.9622 65.3105 57.8574C65.7298 57.748 66.1992 57.6934 66.7188 57.6934H68.4209ZM75.4619 56.0254V64.8438H74.6416V54.6035H75.4072L75.4619 56.0254ZM80.6025 58.2334V58.377C80.6025 58.9284 80.5387 59.4342 80.4111 59.8945C80.2835 60.3548 80.099 60.7536 79.8574 61.0908C79.6204 61.4235 79.3265 61.681 78.9756 61.8633C78.6247 62.0456 78.2259 62.1367 77.7793 62.1367C77.3372 62.1367 76.943 62.0684 76.5967 61.9316C76.2503 61.7949 75.9518 61.6012 75.7012 61.3506C75.4551 61.0954 75.2568 60.7992 75.1064 60.4619C74.9606 60.1201 74.8581 59.7464 74.7988 59.3408V57.4473C74.8672 57.0007 74.9788 56.5951 75.1338 56.2305C75.2887 55.8659 75.487 55.5514 75.7285 55.2871C75.9746 55.0228 76.2663 54.82 76.6035 54.6787C76.9408 54.5374 77.3258 54.4668 77.7588 54.4668C78.21 54.4668 78.611 54.5557 78.9619 54.7334C79.3174 54.9066 79.6159 55.1595 79.8574 55.4922C80.1035 55.8203 80.2881 56.2168 80.4111 56.6816C80.5387 57.1419 80.6025 57.6592 80.6025 58.2334ZM79.7822 58.377V58.2334C79.7822 57.8005 79.7367 57.3994 79.6455 57.0303C79.5589 56.6611 79.4245 56.3398 79.2422 56.0664C79.0645 55.7884 78.8366 55.5719 78.5586 55.417C78.2852 55.262 77.9593 55.1846 77.5811 55.1846C77.1891 55.1846 76.8542 55.2507 76.5762 55.3828C76.3027 55.5104 76.0749 55.6813 75.8926 55.8955C75.7103 56.1051 75.5667 56.3353 75.4619 56.5859C75.3571 56.8366 75.2796 57.0827 75.2295 57.3242V59.5049C75.3161 59.8512 75.4551 60.1725 75.6465 60.4688C75.8379 60.7604 76.0931 60.9951 76.4121 61.1729C76.7357 61.346 77.1299 61.4326 77.5947 61.4326C77.9684 61.4326 78.292 61.3551 78.5654 61.2002C78.8389 61.0452 79.0645 60.8288 79.2422 60.5508C79.4245 60.2728 79.5589 59.9492 79.6455 59.5801C79.7367 59.2109 79.7822 58.8099 79.7822 58.377ZM86.9189 60.6738V56.8594C86.9189 56.5085 86.846 56.2054 86.7002 55.9502C86.5544 55.695 86.3402 55.499 86.0576 55.3623C85.7751 55.2256 85.4264 55.1572 85.0117 55.1572C84.6289 55.1572 84.2871 55.2256 83.9863 55.3623C83.6901 55.4945 83.4554 55.6745 83.2822 55.9023C83.1136 56.1257 83.0293 56.374 83.0293 56.6475L82.209 56.6406C82.209 56.3626 82.2773 56.0938 82.4141 55.834C82.5508 55.5742 82.7445 55.3418 82.9951 55.1367C83.2458 54.9316 83.5443 54.7699 83.8906 54.6514C84.2415 54.5283 84.6266 54.4668 85.0459 54.4668C85.5745 54.4668 86.0394 54.5557 86.4404 54.7334C86.846 54.9111 87.1628 55.1777 87.3906 55.5332C87.6185 55.8887 87.7324 56.3353 87.7324 56.873V60.4482C87.7324 60.7035 87.7507 60.9678 87.7871 61.2412C87.8281 61.5146 87.8851 61.7402 87.958 61.918V62H87.0898C87.0352 61.8359 86.9919 61.6309 86.96 61.3848C86.9326 61.1341 86.9189 60.8971 86.9189 60.6738ZM87.1104 57.6934L87.124 58.3223H85.5176C85.0983 58.3223 84.7223 58.361 84.3896 58.4385C84.0615 58.5114 83.7835 58.6208 83.5557 58.7666C83.3278 58.9079 83.1523 59.0788 83.0293 59.2793C82.9108 59.4798 82.8516 59.7077 82.8516 59.9629C82.8516 60.2272 82.9176 60.4688 83.0498 60.6875C83.1865 60.9062 83.3779 61.0817 83.624 61.2139C83.8747 61.3415 84.1709 61.4053 84.5127 61.4053C84.9684 61.4053 85.3695 61.321 85.7158 61.1523C86.0667 60.9837 86.3561 60.7627 86.584 60.4893C86.8118 60.2158 86.9645 59.9173 87.042 59.5938L87.3975 60.0654C87.3382 60.2933 87.2288 60.528 87.0693 60.7695C86.9144 61.0065 86.7116 61.2298 86.4609 61.4395C86.2103 61.6445 85.9141 61.8132 85.5723 61.9453C85.235 62.0729 84.8522 62.1367 84.4238 62.1367C83.9408 62.1367 83.5192 62.0456 83.1592 61.8633C82.8037 61.681 82.5257 61.4326 82.3252 61.1182C82.1292 60.7992 82.0312 60.4391 82.0312 60.0381C82.0312 59.6735 82.1087 59.3477 82.2637 59.0605C82.4186 58.7689 82.6419 58.5228 82.9336 58.3223C83.2298 58.1172 83.5853 57.9622 84 57.8574C84.4193 57.748 84.8887 57.6934 85.4082 57.6934H87.1104ZM90.7402 55.8271V62H89.9268V54.6035H90.7197L90.7402 55.8271ZM93.3584 54.5488L93.3379 55.3008C93.2467 55.2871 93.1579 55.2757 93.0713 55.2666C92.9847 55.2575 92.8913 55.2529 92.791 55.2529C92.4355 55.2529 92.1234 55.319 91.8545 55.4512C91.5902 55.5788 91.3669 55.7588 91.1846 55.9912C91.0023 56.2191 90.8633 56.488 90.7676 56.7979C90.6719 57.1032 90.6172 57.4313 90.6035 57.7822L90.3027 57.8984C90.3027 57.4154 90.3529 56.9665 90.4531 56.5518C90.5534 56.137 90.7061 55.7747 90.9111 55.4648C91.1208 55.1504 91.3828 54.9066 91.6973 54.7334C92.0163 54.5557 92.39 54.4668 92.8184 54.4668C92.9232 54.4668 93.0257 54.4759 93.126 54.4941C93.2308 54.5078 93.3083 54.526 93.3584 54.5488ZM98.8682 60.6738V56.8594C98.8682 56.5085 98.7952 56.2054 98.6494 55.9502C98.5036 55.695 98.2894 55.499 98.0068 55.3623C97.7243 55.2256 97.3757 55.1572 96.9609 55.1572C96.5781 55.1572 96.2363 55.2256 95.9355 55.3623C95.6393 55.4945 95.4046 55.6745 95.2314 55.9023C95.0628 56.1257 94.9785 56.374 94.9785 56.6475L94.1582 56.6406C94.1582 56.3626 94.2266 56.0938 94.3633 55.834C94.5 55.5742 94.6937 55.3418 94.9443 55.1367C95.195 54.9316 95.4935 54.7699 95.8398 54.6514C96.1908 54.5283 96.5758 54.4668 96.9951 54.4668C97.5238 54.4668 97.9886 54.5557 98.3896 54.7334C98.7952 54.9111 99.112 55.1777 99.3398 55.5332C99.5677 55.8887 99.6816 56.3353 99.6816 56.873V60.4482C99.6816 60.7035 99.6999 60.9678 99.7363 61.2412C99.7773 61.5146 99.8343 61.7402 99.9072 61.918V62H99.0391C98.9844 61.8359 98.9411 61.6309 98.9092 61.3848C98.8818 61.1341 98.8682 60.8971 98.8682 60.6738ZM99.0596 57.6934L99.0732 58.3223H97.4668C97.0475 58.3223 96.6715 58.361 96.3389 58.4385C96.0107 58.5114 95.7327 58.6208 95.5049 58.7666C95.277 58.9079 95.1016 59.0788 94.9785 59.2793C94.86 59.4798 94.8008 59.7077 94.8008 59.9629C94.8008 60.2272 94.8669 60.4688 94.999 60.6875C95.1357 60.9062 95.3271 61.0817 95.5732 61.2139C95.8239 61.3415 96.1201 61.4053 96.4619 61.4053C96.9176 61.4053 97.3187 61.321 97.665 61.1523C98.016 60.9837 98.3053 60.7627 98.5332 60.4893C98.7611 60.2158 98.9137 59.9173 98.9912 59.5938L99.3467 60.0654C99.2874 60.2933 99.1781 60.528 99.0186 60.7695C98.8636 61.0065 98.6608 61.2298 98.4102 61.4395C98.1595 61.6445 97.8633 61.8132 97.5215 61.9453C97.1842 62.0729 96.8014 62.1367 96.373 62.1367C95.89 62.1367 95.4684 62.0456 95.1084 61.8633C94.7529 61.681 94.4749 61.4326 94.2744 61.1182C94.0785 60.7992 93.9805 60.4391 93.9805 60.0381C93.9805 59.6735 94.0579 59.3477 94.2129 59.0605C94.3678 58.7689 94.5911 58.5228 94.8828 58.3223C95.179 58.1172 95.5345 57.9622 95.9492 57.8574C96.3685 57.748 96.8379 57.6934 97.3574 57.6934H99.0596ZM112.896 52.0469V62H112.048L106.326 53.4961V62H105.485V52.0469H106.326L112.062 60.5508V52.0469H112.896ZM118.104 62.1367C117.621 62.1367 117.177 62.0479 116.771 61.8701C116.37 61.6924 116.02 61.4417 115.719 61.1182C115.423 60.7946 115.192 60.4118 115.028 59.9697C114.869 59.5231 114.789 59.0355 114.789 58.5068V58.2129C114.789 57.6432 114.873 57.1283 115.042 56.668C115.211 56.2077 115.443 55.8135 115.739 55.4854C116.035 55.1572 116.373 54.9066 116.751 54.7334C117.134 54.5557 117.535 54.4668 117.954 54.4668C118.424 54.4668 118.84 54.5511 119.205 54.7197C119.57 54.8838 119.875 55.1185 120.121 55.4238C120.372 55.7246 120.561 56.0824 120.688 56.4971C120.816 56.9072 120.88 57.3607 120.88 57.8574V58.3564H115.281V57.6592H120.066V57.5635C120.057 57.1488 119.973 56.7614 119.813 56.4014C119.659 56.0368 119.426 55.7406 119.116 55.5127C118.806 55.2848 118.419 55.1709 117.954 55.1709C117.608 55.1709 117.289 55.2438 116.997 55.3896C116.71 55.5355 116.462 55.7451 116.252 56.0186C116.047 56.2874 115.887 56.6087 115.773 56.9824C115.664 57.3516 115.609 57.7617 115.609 58.2129V58.5068C115.609 58.917 115.669 59.2998 115.787 59.6553C115.91 60.0062 116.083 60.3161 116.307 60.585C116.535 60.8538 116.803 61.0635 117.113 61.2139C117.423 61.3643 117.765 61.4395 118.139 61.4395C118.576 61.4395 118.964 61.3597 119.301 61.2002C119.638 61.0361 119.941 60.7786 120.21 60.4277L120.723 60.8242C120.563 61.0612 120.363 61.2799 120.121 61.4805C119.884 61.681 119.599 61.8405 119.267 61.959C118.934 62.0775 118.547 62.1367 118.104 62.1367ZM127.36 54.6035H128.119V61.8701C128.119 62.5127 127.996 63.0641 127.75 63.5244C127.508 63.9847 127.164 64.3379 126.718 64.584C126.276 64.8301 125.754 64.9531 125.152 64.9531C124.847 64.9531 124.533 64.9053 124.209 64.8096C123.89 64.7184 123.587 64.5771 123.3 64.3857C123.017 64.1989 122.776 63.9665 122.575 63.6885L123.033 63.1895C123.334 63.554 123.655 63.8206 123.997 63.9893C124.339 64.1624 124.708 64.249 125.104 64.249C125.574 64.249 125.97 64.1556 126.294 63.9688C126.622 63.7819 126.87 63.513 127.039 63.1621C127.212 62.8112 127.299 62.3896 127.299 61.8975V56.2305L127.36 54.6035ZM122.165 58.377V58.2334C122.165 57.6592 122.229 57.1419 122.356 56.6816C122.489 56.2168 122.678 55.8203 122.924 55.4922C123.17 55.1595 123.468 54.9066 123.819 54.7334C124.175 54.5557 124.576 54.4668 125.022 54.4668C125.451 54.4668 125.831 54.5374 126.164 54.6787C126.497 54.82 126.784 55.0228 127.025 55.2871C127.267 55.5514 127.461 55.8659 127.606 56.2305C127.757 56.5951 127.866 57.0007 127.935 57.4473V59.2725C127.88 59.6917 127.78 60.0768 127.634 60.4277C127.488 60.7741 127.294 61.0771 127.053 61.3369C126.811 61.5921 126.52 61.7904 126.178 61.9316C125.84 62.0684 125.451 62.1367 125.009 62.1367C124.567 62.1367 124.17 62.0456 123.819 61.8633C123.468 61.681 123.17 61.4235 122.924 61.0908C122.678 60.7536 122.489 60.3548 122.356 59.8945C122.229 59.4342 122.165 58.9284 122.165 58.377ZM122.985 58.2334V58.377C122.985 58.8099 123.029 59.2109 123.115 59.5801C123.202 59.9492 123.334 60.2705 123.512 60.5439C123.689 60.8174 123.915 61.0316 124.188 61.1865C124.462 61.3415 124.783 61.4189 125.152 61.4189C125.622 61.4189 126.016 61.3301 126.335 61.1523C126.654 60.9701 126.907 60.7308 127.094 60.4346C127.281 60.1338 127.417 59.8057 127.504 59.4502V57.3242C127.454 57.0827 127.376 56.8366 127.271 56.5859C127.171 56.3353 127.03 56.1051 126.848 55.8955C126.67 55.6813 126.442 55.5104 126.164 55.3828C125.891 55.2507 125.558 55.1846 125.166 55.1846C124.792 55.1846 124.466 55.262 124.188 55.417C123.915 55.5719 123.689 55.7884 123.512 56.0664C123.334 56.3398 123.202 56.6611 123.115 57.0303C123.029 57.3994 122.985 57.8005 122.985 58.2334ZM129.808 58.418V58.1924C129.808 57.6546 129.885 57.1579 130.04 56.7021C130.195 56.2464 130.416 55.8522 130.703 55.5195C130.995 55.1868 131.343 54.9294 131.749 54.7471C132.155 54.5602 132.606 54.4668 133.103 54.4668C133.604 54.4668 134.057 54.5602 134.463 54.7471C134.868 54.9294 135.217 55.1868 135.509 55.5195C135.8 55.8522 136.024 56.2464 136.179 56.7021C136.334 57.1579 136.411 57.6546 136.411 58.1924V58.418C136.411 58.9557 136.334 59.4525 136.179 59.9082C136.024 60.3594 135.8 60.7513 135.509 61.084C135.222 61.4167 134.875 61.6764 134.47 61.8633C134.064 62.0456 133.613 62.1367 133.116 62.1367C132.615 62.1367 132.161 62.0456 131.756 61.8633C131.35 61.6764 131.002 61.4167 130.71 61.084C130.418 60.7513 130.195 60.3594 130.04 59.9082C129.885 59.4525 129.808 58.9557 129.808 58.418ZM130.621 58.1924V58.418C130.621 58.8236 130.676 59.2087 130.785 59.5732C130.895 59.9333 131.054 60.2546 131.264 60.5371C131.473 60.8151 131.733 61.0339 132.043 61.1934C132.353 61.3529 132.711 61.4326 133.116 61.4326C133.517 61.4326 133.87 61.3529 134.176 61.1934C134.486 61.0339 134.745 60.8151 134.955 60.5371C135.165 60.2546 135.322 59.9333 135.427 59.5732C135.536 59.2087 135.591 58.8236 135.591 58.418V58.1924C135.591 57.7913 135.536 57.4108 135.427 57.0508C135.322 56.6908 135.162 56.3695 134.948 56.0869C134.739 55.8044 134.479 55.5811 134.169 55.417C133.859 55.2529 133.504 55.1709 133.103 55.1709C132.701 55.1709 132.346 55.2529 132.036 55.417C131.731 55.5811 131.471 55.8044 131.257 56.0869C131.047 56.3695 130.888 56.6908 130.778 57.0508C130.674 57.4108 130.621 57.7913 130.621 58.1924ZM132.61 53.4277L133.916 51.5137H134.9L133.321 53.4277H132.61ZM140.834 61.4326C141.18 61.4326 141.504 61.3688 141.805 61.2412C142.11 61.109 142.361 60.9154 142.557 60.6602C142.757 60.4004 142.871 60.0837 142.898 59.71H143.678C143.655 60.1794 143.511 60.5986 143.247 60.9678C142.987 61.3324 142.646 61.6195 142.222 61.8291C141.802 62.0342 141.34 62.1367 140.834 62.1367C140.319 62.1367 139.863 62.0433 139.467 61.8564C139.075 61.6696 138.747 61.4098 138.482 61.0771C138.218 60.7399 138.018 60.348 137.881 59.9014C137.749 59.4502 137.683 58.9648 137.683 58.4453V58.1582C137.683 57.6387 137.749 57.1556 137.881 56.709C138.018 56.2578 138.218 55.8659 138.482 55.5332C138.747 55.196 139.075 54.9339 139.467 54.7471C139.859 54.5602 140.312 54.4668 140.827 54.4668C141.356 54.4668 141.83 54.5739 142.249 54.7881C142.673 55.0023 143.01 55.3053 143.261 55.6973C143.516 56.0892 143.655 56.554 143.678 57.0918H142.898C142.876 56.6953 142.771 56.3535 142.584 56.0664C142.397 55.7793 142.151 55.5583 141.846 55.4033C141.54 55.2484 141.201 55.1709 140.827 55.1709C140.408 55.1709 140.05 55.2529 139.754 55.417C139.458 55.5765 139.216 55.7975 139.029 56.0801C138.847 56.3581 138.713 56.6771 138.626 57.0371C138.539 57.3926 138.496 57.7663 138.496 58.1582V58.4453C138.496 58.8418 138.537 59.2201 138.619 59.5801C138.706 59.9355 138.84 60.2523 139.022 60.5303C139.209 60.8083 139.451 61.0293 139.747 61.1934C140.048 61.3529 140.41 61.4326 140.834 61.4326ZM146.234 54.6035V62H145.421V54.6035H146.234ZM145.277 52.4639C145.277 52.3089 145.325 52.179 145.421 52.0742C145.521 51.9648 145.658 51.9102 145.831 51.9102C146.004 51.9102 146.141 51.9648 146.241 52.0742C146.346 52.179 146.398 52.3089 146.398 52.4639C146.398 52.6143 146.346 52.7441 146.241 52.8535C146.141 52.9583 146.004 53.0107 145.831 53.0107C145.658 53.0107 145.521 52.9583 145.421 52.8535C145.325 52.7441 145.277 52.6143 145.277 52.4639ZM148.019 58.418V58.1924C148.019 57.6546 148.096 57.1579 148.251 56.7021C148.406 56.2464 148.627 55.8522 148.914 55.5195C149.206 55.1868 149.554 54.9294 149.96 54.7471C150.366 54.5602 150.817 54.4668 151.313 54.4668C151.815 54.4668 152.268 54.5602 152.674 54.7471C153.079 54.9294 153.428 55.1868 153.72 55.5195C154.011 55.8522 154.235 56.2464 154.39 56.7021C154.545 57.1579 154.622 57.6546 154.622 58.1924V58.418C154.622 58.9557 154.545 59.4525 154.39 59.9082C154.235 60.3594 154.011 60.7513 153.72 61.084C153.433 61.4167 153.086 61.6764 152.681 61.8633C152.275 62.0456 151.824 62.1367 151.327 62.1367C150.826 62.1367 150.372 62.0456 149.967 61.8633C149.561 61.6764 149.213 61.4167 148.921 61.084C148.629 60.7513 148.406 60.3594 148.251 59.9082C148.096 59.4525 148.019 58.9557 148.019 58.418ZM148.832 58.1924V58.418C148.832 58.8236 148.887 59.2087 148.996 59.5732C149.105 59.9333 149.265 60.2546 149.475 60.5371C149.684 60.8151 149.944 61.0339 150.254 61.1934C150.564 61.3529 150.922 61.4326 151.327 61.4326C151.728 61.4326 152.081 61.3529 152.387 61.1934C152.697 61.0339 152.956 60.8151 153.166 60.5371C153.376 60.2546 153.533 59.9333 153.638 59.5732C153.747 59.2087 153.802 58.8236 153.802 58.418V58.1924C153.802 57.7913 153.747 57.4108 153.638 57.0508C153.533 56.6908 153.373 56.3695 153.159 56.0869C152.95 55.8044 152.69 55.5811 152.38 55.417C152.07 55.2529 151.715 55.1709 151.313 55.1709C150.912 55.1709 150.557 55.2529 150.247 55.417C149.942 55.5811 149.682 55.8044 149.468 56.0869C149.258 56.3695 149.099 56.6908 148.989 57.0508C148.884 57.4108 148.832 57.7913 148.832 58.1924ZM160.747 60.1133C160.747 59.9128 160.697 59.7145 160.597 59.5186C160.496 59.3226 160.303 59.1426 160.016 58.9785C159.733 58.8145 159.316 58.6755 158.765 58.5615C158.354 58.4704 157.988 58.3678 157.664 58.2539C157.345 58.14 157.076 58.0033 156.857 57.8438C156.639 57.6842 156.472 57.4928 156.358 57.2695C156.244 57.0462 156.188 56.7819 156.188 56.4766C156.188 56.2031 156.247 55.9456 156.365 55.7041C156.488 55.458 156.661 55.2438 156.885 55.0615C157.113 54.8747 157.386 54.7288 157.705 54.624C158.029 54.5192 158.391 54.4668 158.792 54.4668C159.362 54.4668 159.849 54.5648 160.255 54.7607C160.665 54.9521 160.977 55.2142 161.191 55.5469C161.41 55.8796 161.52 56.2555 161.52 56.6748H160.706C160.706 56.4196 160.631 56.1781 160.48 55.9502C160.335 55.7223 160.118 55.5355 159.831 55.3896C159.549 55.2438 159.202 55.1709 158.792 55.1709C158.368 55.1709 158.024 55.2347 157.76 55.3623C157.495 55.4899 157.302 55.6517 157.179 55.8477C157.06 56.0436 157.001 56.2464 157.001 56.4561C157.001 56.6201 157.026 56.7705 157.076 56.9072C157.131 57.0394 157.227 57.1624 157.363 57.2764C157.505 57.3903 157.705 57.4974 157.965 57.5977C158.225 57.6979 158.562 57.7959 158.977 57.8916C159.574 58.0238 160.061 58.1855 160.439 58.377C160.822 58.5638 161.105 58.7962 161.287 59.0742C161.469 59.3477 161.561 59.6803 161.561 60.0723C161.561 60.3776 161.497 60.6579 161.369 60.9131C161.242 61.1637 161.057 61.3802 160.815 61.5625C160.578 61.7448 160.291 61.8861 159.954 61.9863C159.621 62.0866 159.248 62.1367 158.833 62.1367C158.209 62.1367 157.68 62.0342 157.247 61.8291C156.819 61.6195 156.493 61.346 156.27 61.0088C156.051 60.667 155.941 60.3047 155.941 59.9219H156.755C156.782 60.3047 156.903 60.6077 157.117 60.8311C157.331 61.0498 157.593 61.2048 157.903 61.2959C158.218 61.387 158.528 61.4326 158.833 61.4326C159.252 61.4326 159.603 61.3711 159.886 61.248C160.168 61.125 160.382 60.9632 160.528 60.7627C160.674 60.5622 160.747 60.3457 160.747 60.1133ZM169.743 62H167.487L167.501 61.2822H169.743C170.459 61.2822 171.074 61.1227 171.589 60.8037C172.108 60.4801 172.509 60.0335 172.792 59.4639C173.075 58.8942 173.216 58.2334 173.216 57.4814V56.5518C173.216 55.9775 173.134 55.458 172.97 54.9932C172.81 54.5283 172.58 54.1318 172.279 53.8037C171.979 53.471 171.618 53.2158 171.199 53.0381C170.785 52.8604 170.32 52.7715 169.805 52.7715H167.446V52.0469H169.805C170.424 52.0469 170.992 52.154 171.507 52.3682C172.026 52.5778 172.475 52.8831 172.854 53.2842C173.236 53.6807 173.53 54.1569 173.735 54.7129C173.945 55.2689 174.05 55.8887 174.05 56.5723V57.4814C174.05 58.165 173.945 58.7848 173.735 59.3408C173.53 59.8968 173.236 60.373 172.854 60.7695C172.471 61.166 172.017 61.4714 171.493 61.6855C170.969 61.8952 170.386 62 169.743 62ZM167.863 52.0469V62H167.022V52.0469H167.863ZM176.914 54.6035V62H176.101V54.6035H176.914ZM175.957 52.4639C175.957 52.3089 176.005 52.179 176.101 52.0742C176.201 51.9648 176.338 51.9102 176.511 51.9102C176.684 51.9102 176.821 51.9648 176.921 52.0742C177.026 52.179 177.078 52.3089 177.078 52.4639C177.078 52.6143 177.026 52.7441 176.921 52.8535C176.821 52.9583 176.684 53.0107 176.511 53.0107C176.338 53.0107 176.201 52.9583 176.101 52.8535C176.005 52.7441 175.957 52.6143 175.957 52.4639ZM184.017 54.6035H184.775V61.8701C184.775 62.5127 184.652 63.0641 184.406 63.5244C184.165 63.9847 183.821 64.3379 183.374 64.584C182.932 64.8301 182.41 64.9531 181.809 64.9531C181.503 64.9531 181.189 64.9053 180.865 64.8096C180.546 64.7184 180.243 64.5771 179.956 64.3857C179.674 64.1989 179.432 63.9665 179.231 63.6885L179.689 63.1895C179.99 63.554 180.312 63.8206 180.653 63.9893C180.995 64.1624 181.364 64.249 181.761 64.249C182.23 64.249 182.627 64.1556 182.95 63.9688C183.278 63.7819 183.527 63.513 183.695 63.1621C183.868 62.8112 183.955 62.3896 183.955 61.8975V56.2305L184.017 54.6035ZM178.821 58.377V58.2334C178.821 57.6592 178.885 57.1419 179.013 56.6816C179.145 56.2168 179.334 55.8203 179.58 55.4922C179.826 55.1595 180.125 54.9066 180.476 54.7334C180.831 54.5557 181.232 54.4668 181.679 54.4668C182.107 54.4668 182.488 54.5374 182.82 54.6787C183.153 54.82 183.44 55.0228 183.682 55.2871C183.923 55.5514 184.117 55.8659 184.263 56.2305C184.413 56.5951 184.522 57.0007 184.591 57.4473V59.2725C184.536 59.6917 184.436 60.0768 184.29 60.4277C184.144 60.7741 183.951 61.0771 183.709 61.3369C183.467 61.5921 183.176 61.7904 182.834 61.9316C182.497 62.0684 182.107 62.1367 181.665 62.1367C181.223 62.1367 180.826 62.0456 180.476 61.8633C180.125 61.681 179.826 61.4235 179.58 61.0908C179.334 60.7536 179.145 60.3548 179.013 59.8945C178.885 59.4342 178.821 58.9284 178.821 58.377ZM179.642 58.2334V58.377C179.642 58.8099 179.685 59.2109 179.771 59.5801C179.858 59.9492 179.99 60.2705 180.168 60.5439C180.346 60.8174 180.571 61.0316 180.845 61.1865C181.118 61.3415 181.439 61.4189 181.809 61.4189C182.278 61.4189 182.672 61.3301 182.991 61.1523C183.31 60.9701 183.563 60.7308 183.75 60.4346C183.937 60.1338 184.074 59.8057 184.16 59.4502V57.3242C184.11 57.0827 184.033 56.8366 183.928 56.5859C183.827 56.3353 183.686 56.1051 183.504 55.8955C183.326 55.6813 183.098 55.5104 182.82 55.3828C182.547 55.2507 182.214 55.1846 181.822 55.1846C181.449 55.1846 181.123 55.262 180.845 55.417C180.571 55.5719 180.346 55.7884 180.168 56.0664C179.99 56.3398 179.858 56.6611 179.771 57.0303C179.685 57.3994 179.642 57.8005 179.642 58.2334ZM187.824 54.6035V62H187.011V54.6035H187.824ZM186.867 52.4639C186.867 52.3089 186.915 52.179 187.011 52.0742C187.111 51.9648 187.248 51.9102 187.421 51.9102C187.594 51.9102 187.731 51.9648 187.831 52.0742C187.936 52.179 187.988 52.3089 187.988 52.4639C187.988 52.6143 187.936 52.7441 187.831 52.8535C187.731 52.9583 187.594 53.0107 187.421 53.0107C187.248 53.0107 187.111 52.9583 187.011 52.8535C186.915 52.7441 186.867 52.6143 186.867 52.4639ZM192.855 54.6035V55.2734H189.15V54.6035H192.855ZM190.511 52.7031H191.324V60.2021C191.324 60.5439 191.37 60.8014 191.461 60.9746C191.552 61.1478 191.671 61.264 191.816 61.3232C191.962 61.3825 192.119 61.4121 192.288 61.4121C192.411 61.4121 192.53 61.4053 192.644 61.3916C192.757 61.3734 192.86 61.3551 192.951 61.3369L192.985 62.0273C192.885 62.0592 192.755 62.0843 192.596 62.1025C192.436 62.1253 192.277 62.1367 192.117 62.1367C191.803 62.1367 191.525 62.0798 191.283 61.9658C191.042 61.8473 190.853 61.6468 190.716 61.3643C190.579 61.0771 190.511 60.6875 190.511 60.1953V52.7031ZM199.069 60.6738V56.8594C199.069 56.5085 198.996 56.2054 198.851 55.9502C198.705 55.695 198.491 55.499 198.208 55.3623C197.925 55.2256 197.577 55.1572 197.162 55.1572C196.779 55.1572 196.438 55.2256 196.137 55.3623C195.84 55.4945 195.606 55.6745 195.433 55.9023C195.264 56.1257 195.18 56.374 195.18 56.6475L194.359 56.6406C194.359 56.3626 194.428 56.0938 194.564 55.834C194.701 55.5742 194.895 55.3418 195.146 55.1367C195.396 54.9316 195.695 54.7699 196.041 54.6514C196.392 54.5283 196.777 54.4668 197.196 54.4668C197.725 54.4668 198.19 54.5557 198.591 54.7334C198.996 54.9111 199.313 55.1777 199.541 55.5332C199.769 55.8887 199.883 56.3353 199.883 56.873V60.4482C199.883 60.7035 199.901 60.9678 199.938 61.2412C199.979 61.5146 200.035 61.7402 200.108 61.918V62H199.24C199.186 61.8359 199.142 61.6309 199.11 61.3848C199.083 61.1341 199.069 60.8971 199.069 60.6738ZM199.261 57.6934L199.274 58.3223H197.668C197.249 58.3223 196.873 58.361 196.54 58.4385C196.212 58.5114 195.934 58.6208 195.706 58.7666C195.478 58.9079 195.303 59.0788 195.18 59.2793C195.061 59.4798 195.002 59.7077 195.002 59.9629C195.002 60.2272 195.068 60.4688 195.2 60.6875C195.337 60.9062 195.528 61.0817 195.774 61.2139C196.025 61.3415 196.321 61.4053 196.663 61.4053C197.119 61.4053 197.52 61.321 197.866 61.1523C198.217 60.9837 198.507 60.7627 198.734 60.4893C198.962 60.2158 199.115 59.9173 199.192 59.5938L199.548 60.0654C199.489 60.2933 199.379 60.528 199.22 60.7695C199.065 61.0065 198.862 61.2298 198.611 61.4395C198.361 61.6445 198.064 61.8132 197.723 61.9453C197.385 62.0729 197.003 62.1367 196.574 62.1367C196.091 62.1367 195.67 62.0456 195.31 61.8633C194.954 61.681 194.676 61.4326 194.476 61.1182C194.28 60.7992 194.182 60.4391 194.182 60.0381C194.182 59.6735 194.259 59.3477 194.414 59.0605C194.569 58.7689 194.792 58.5228 195.084 58.3223C195.38 58.1172 195.736 57.9622 196.15 57.8574C196.57 57.748 197.039 57.6934 197.559 57.6934H199.261ZM202.986 54.6035V62H202.173V54.6035H202.986ZM202.029 52.4639C202.029 52.3089 202.077 52.179 202.173 52.0742C202.273 51.9648 202.41 51.9102 202.583 51.9102C202.756 51.9102 202.893 51.9648 202.993 52.0742C203.098 52.179 203.15 52.3089 203.15 52.4639C203.15 52.6143 203.098 52.7441 202.993 52.8535C202.893 52.9583 202.756 53.0107 202.583 53.0107C202.41 53.0107 202.273 52.9583 202.173 52.8535C202.077 52.7441 202.029 52.6143 202.029 52.4639ZM209.651 60.1133C209.651 59.9128 209.601 59.7145 209.501 59.5186C209.401 59.3226 209.207 59.1426 208.92 58.9785C208.637 58.8145 208.22 58.6755 207.669 58.5615C207.259 58.4704 206.892 58.3678 206.568 58.2539C206.249 58.14 205.98 58.0033 205.762 57.8438C205.543 57.6842 205.377 57.4928 205.263 57.2695C205.149 57.0462 205.092 56.7819 205.092 56.4766C205.092 56.2031 205.151 55.9456 205.27 55.7041C205.393 55.458 205.566 55.2438 205.789 55.0615C206.017 54.8747 206.29 54.7288 206.609 54.624C206.933 54.5192 207.295 54.4668 207.696 54.4668C208.266 54.4668 208.754 54.5648 209.159 54.7607C209.569 54.9521 209.882 55.2142 210.096 55.5469C210.314 55.8796 210.424 56.2555 210.424 56.6748H209.61C209.61 56.4196 209.535 56.1781 209.385 55.9502C209.239 55.7223 209.022 55.5355 208.735 55.3896C208.453 55.2438 208.106 55.1709 207.696 55.1709C207.272 55.1709 206.928 55.2347 206.664 55.3623C206.4 55.4899 206.206 55.6517 206.083 55.8477C205.965 56.0436 205.905 56.2464 205.905 56.4561C205.905 56.6201 205.93 56.7705 205.98 56.9072C206.035 57.0394 206.131 57.1624 206.268 57.2764C206.409 57.3903 206.609 57.4974 206.869 57.5977C207.129 57.6979 207.466 57.7959 207.881 57.8916C208.478 58.0238 208.965 58.1855 209.344 58.377C209.727 58.5638 210.009 58.7962 210.191 59.0742C210.374 59.3477 210.465 59.6803 210.465 60.0723C210.465 60.3776 210.401 60.6579 210.273 60.9131C210.146 61.1637 209.961 61.3802 209.72 61.5625C209.483 61.7448 209.196 61.8861 208.858 61.9863C208.526 62.0866 208.152 62.1367 207.737 62.1367C207.113 62.1367 206.584 62.0342 206.151 61.8291C205.723 61.6195 205.397 61.346 205.174 61.0088C204.955 60.667 204.846 60.3047 204.846 59.9219H205.659C205.687 60.3047 205.807 60.6077 206.021 60.8311C206.236 61.0498 206.498 61.2048 206.808 61.2959C207.122 61.387 207.432 61.4326 207.737 61.4326C208.157 61.4326 208.507 61.3711 208.79 61.248C209.073 61.125 209.287 60.9632 209.433 60.7627C209.578 60.5622 209.651 60.3457 209.651 60.1133Z" fill="white"/>
</svg>
