<svg width="216" height="60" viewBox="0 0 216 60" fill="none" xmlns="http://www.w3.org/2000/svg">
<path d="M1.848 12.624V10.902H13.734V12.624L9.87 13.086C9.842 14.85 9.814 16.642 9.786 18.462C9.786 20.282 9.786 22.102 9.786 23.922V25.98C9.786 27.772 9.786 29.578 9.786 31.398C9.814 33.19 9.842 34.996 9.87 36.816L13.734 37.278V39H1.848V37.278L5.712 36.816C5.768 35.052 5.796 33.26 5.796 31.44C5.796 29.62 5.796 27.8 5.796 25.98V23.922C5.796 22.102 5.796 20.296 5.796 18.504C5.796 16.684 5.768 14.878 5.712 13.086L1.848 12.624ZM21.0459 39V37.488L24.1539 36.9C24.1819 35.836 24.1959 34.688 24.1959 33.456C24.2239 32.224 24.2379 31.132 24.2379 30.18V28.164C24.2379 27.016 24.2239 26.064 24.1959 25.308C24.1959 24.552 24.1679 23.754 24.1119 22.914L20.7939 22.536V21.066L26.6739 18.504L27.3039 18.924L27.6399 22.284C28.6759 21.164 29.8659 20.254 31.2099 19.554C32.5539 18.854 33.8699 18.504 35.1579 18.504C36.9779 18.504 38.3219 19.12 39.1899 20.352C40.0859 21.556 40.5339 23.53 40.5339 26.274V30.18C40.5339 31.132 40.5339 32.224 40.5339 33.456C40.5619 34.688 40.5899 35.836 40.6179 36.9L43.5579 37.488V39H33.8139V37.488L36.9219 36.9C36.9499 35.864 36.9639 34.73 36.9639 33.498C36.9919 32.238 37.0059 31.132 37.0059 30.18V26.61C37.0059 24.678 36.7259 23.348 36.1659 22.62C35.6339 21.892 34.7519 21.528 33.5199 21.528C32.5679 21.528 31.6439 21.724 30.7479 22.116C29.8519 22.508 28.8719 23.152 27.8079 24.048V30.18C27.8079 31.104 27.8079 32.196 27.8079 33.456C27.8359 34.688 27.8639 35.836 27.8919 36.9L30.7899 37.488V39H21.0459ZM57.0216 39.546C55.5656 39.546 54.4036 39.154 53.5356 38.37C52.6676 37.586 52.2336 36.382 52.2336 34.758C52.2336 34.226 52.2336 33.708 52.2336 33.204C52.2616 32.672 52.2756 32 52.2756 31.188V21.276H48.7896V19.428L52.5276 18.966L53.6196 13.338H56.1396L55.8876 19.05H61.5576V21.276H55.8456V34.296C55.8456 35.36 56.0556 36.144 56.4756 36.648C56.8956 37.124 57.4556 37.362 58.1556 37.362C58.6316 37.362 59.0796 37.264 59.4996 37.068C59.9476 36.872 60.4376 36.592 60.9696 36.228L61.9776 37.32C60.8296 38.804 59.1776 39.546 57.0216 39.546ZM77.1478 20.436C76.3638 20.436 75.5658 20.66 74.7538 21.108C73.9698 21.556 73.2838 22.27 72.6958 23.25C72.1358 24.23 71.7718 25.532 71.6038 27.156H79.2478C80.2558 27.156 80.9138 26.946 81.2218 26.526C81.5578 26.106 81.7258 25.588 81.7258 24.972C81.7258 24.16 81.5158 23.418 81.0958 22.746C80.7038 22.046 80.1578 21.486 79.4578 21.066C78.7858 20.646 78.0158 20.436 77.1478 20.436ZM77.1058 39.546C74.2778 39.546 72.0098 38.636 70.3018 36.816C68.5938 34.968 67.7398 32.434 67.7398 29.214C67.7398 27.058 68.1738 25.182 69.0418 23.586C69.9378 21.99 71.1138 20.744 72.5698 19.848C74.0538 18.952 75.6638 18.504 77.3998 18.504C78.8558 18.504 80.1718 18.826 81.3478 19.47C82.5238 20.114 83.4618 21.038 84.1618 22.242C84.8618 23.418 85.2118 24.86 85.2118 26.568C85.2118 27.044 85.1838 27.492 85.1278 27.912C85.0718 28.304 85.0018 28.64 84.9178 28.92H71.5198C71.5758 31.496 72.2198 33.456 73.4518 34.8C74.6838 36.144 76.3078 36.816 78.3238 36.816C79.6678 36.816 80.7878 36.55 81.6838 36.018C82.5798 35.458 83.4058 34.744 84.1618 33.876L85.1698 34.674C84.3858 36.158 83.3218 37.348 81.9778 38.244C80.6338 39.112 79.0098 39.546 77.1058 39.546ZM92.7199 39V37.488L95.8279 36.9C95.8559 35.836 95.8699 34.688 95.8699 33.456C95.8979 32.224 95.9119 31.132 95.9119 30.18V28.164C95.9119 27.016 95.8979 26.064 95.8699 25.308C95.8699 24.552 95.8419 23.754 95.7859 22.914L92.4679 22.536V21.066L98.3479 18.504L98.9779 18.924L99.3139 22.284C100.35 21.164 101.54 20.254 102.884 19.554C104.228 18.854 105.544 18.504 106.832 18.504C108.652 18.504 109.996 19.12 110.864 20.352C111.76 21.556 112.208 23.53 112.208 26.274V30.18C112.208 31.132 112.208 32.224 112.208 33.456C112.236 34.688 112.264 35.836 112.292 36.9L115.232 37.488V39H105.488V37.488L108.596 36.9C108.624 35.864 108.638 34.73 108.638 33.498C108.666 32.238 108.68 31.132 108.68 30.18V26.61C108.68 24.678 108.4 23.348 107.84 22.62C107.308 21.892 106.426 21.528 105.194 21.528C104.242 21.528 103.318 21.724 102.422 22.116C101.526 22.508 100.546 23.152 99.4819 24.048V30.18C99.4819 31.104 99.4819 32.196 99.4819 33.456C99.5099 34.688 99.5379 35.836 99.5659 36.9L102.464 37.488V39H92.7199ZM128.691 39.546C127.515 39.546 126.437 39.406 125.457 39.126C124.477 38.874 123.469 38.482 122.433 37.95L122.265 33.33H124.575L125.373 36.984C126.353 37.432 127.487 37.656 128.775 37.656C130.371 37.656 131.547 37.362 132.303 36.774C133.087 36.186 133.479 35.416 133.479 34.464C133.479 33.568 133.157 32.854 132.513 32.322C131.869 31.762 130.889 31.258 129.573 30.81L127.641 30.096C126.101 29.536 124.869 28.808 123.945 27.912C123.021 27.016 122.559 25.854 122.559 24.426C122.559 23.39 122.839 22.424 123.399 21.528C123.959 20.632 124.785 19.904 125.877 19.344C126.969 18.784 128.299 18.504 129.867 18.504C131.015 18.504 132.051 18.658 132.975 18.966C133.927 19.246 134.851 19.666 135.747 20.226L135.579 24.51H133.395L132.723 21.15C131.771 20.674 130.805 20.436 129.825 20.436C128.537 20.436 127.557 20.702 126.885 21.234C126.241 21.738 125.919 22.424 125.919 23.292C125.919 24.216 126.199 24.916 126.759 25.392C127.347 25.868 128.355 26.372 129.783 26.904L131.085 27.366C133.185 28.15 134.669 29.046 135.537 30.054C136.433 31.062 136.881 32.224 136.881 33.54C136.881 34.604 136.573 35.598 135.957 36.522C135.341 37.418 134.431 38.146 133.227 38.706C132.023 39.266 130.511 39.546 128.691 39.546ZM153.58 20.436C152.796 20.436 151.998 20.66 151.186 21.108C150.402 21.556 149.716 22.27 149.128 23.25C148.568 24.23 148.204 25.532 148.036 27.156H155.68C156.688 27.156 157.346 26.946 157.654 26.526C157.99 26.106 158.158 25.588 158.158 24.972C158.158 24.16 157.948 23.418 157.528 22.746C157.136 22.046 156.59 21.486 155.89 21.066C155.218 20.646 154.448 20.436 153.58 20.436ZM153.538 39.546C150.71 39.546 148.442 38.636 146.734 36.816C145.026 34.968 144.172 32.434 144.172 29.214C144.172 27.058 144.606 25.182 145.474 23.586C146.37 21.99 147.546 20.744 149.002 19.848C150.486 18.952 152.096 18.504 153.832 18.504C155.288 18.504 156.604 18.826 157.78 19.47C158.956 20.114 159.894 21.038 160.594 22.242C161.294 23.418 161.644 24.86 161.644 26.568C161.644 27.044 161.616 27.492 161.56 27.912C161.504 28.304 161.434 28.64 161.35 28.92H147.952C148.008 31.496 148.652 33.456 149.884 34.8C151.116 36.144 152.74 36.816 154.756 36.816C156.1 36.816 157.22 36.55 158.116 36.018C159.012 35.458 159.838 34.744 160.594 33.876L161.602 34.674C160.818 36.158 159.754 37.348 158.41 38.244C157.066 39.112 155.442 39.546 153.538 39.546Z" fill="white"/>
<path d="M5.418 55.196C4.494 55.196 3.68667 54.9907 2.996 54.58C2.30533 54.16 1.764 53.5813 1.372 52.844C0.989333 52.0973 0.798 51.2433 0.798 50.282C0.798 49.3207 0.994 48.4713 1.386 47.734C1.78733 46.9967 2.33333 46.418 3.024 45.998C3.724 45.578 4.522 45.368 5.418 45.368C5.91267 45.368 6.37 45.424 6.79 45.536C7.21933 45.6387 7.65333 45.8207 8.092 46.082L8.148 48.056H7.602L7.35 46.348C6.79 46.0027 6.17867 45.83 5.516 45.83C4.76 45.83 4.09267 46.012 3.514 46.376C2.93533 46.7307 2.48267 47.2393 2.156 47.902C1.82933 48.5647 1.666 49.358 1.666 50.282C1.666 51.2153 1.82933 52.0133 2.156 52.676C2.48267 53.3387 2.926 53.8473 3.486 54.202C4.05533 54.5473 4.704 54.72 5.432 54.72C5.78667 54.72 6.132 54.6827 6.468 54.608C6.81333 54.5333 7.14467 54.4073 7.462 54.23L7.714 52.494H8.26L8.204 54.482C7.74667 54.7433 7.28933 54.9253 6.832 55.028C6.384 55.14 5.91267 55.196 5.418 55.196ZM12.7354 55.182C12.2221 55.182 11.7274 55.0607 11.2514 54.818C10.7847 54.566 10.3974 54.1833 10.0894 53.67C9.79074 53.1567 9.64141 52.508 9.64141 51.724C9.64141 50.9307 9.79074 50.2773 10.0894 49.764C10.3974 49.2413 10.7847 48.854 11.2514 48.602C11.7274 48.3407 12.2221 48.21 12.7354 48.21C13.2487 48.21 13.7387 48.3407 14.2054 48.602C14.6814 48.854 15.0734 49.2413 15.3814 49.764C15.6894 50.2773 15.8434 50.9307 15.8434 51.724C15.8434 52.508 15.6894 53.1567 15.3814 53.67C15.0734 54.1833 14.6814 54.566 14.2054 54.818C13.7387 55.0607 13.2487 55.182 12.7354 55.182ZM12.7354 54.762C13.4447 54.762 14.0094 54.496 14.4294 53.964C14.8494 53.432 15.0594 52.6853 15.0594 51.724C15.0594 50.7533 14.8494 49.9973 14.4294 49.456C14.0094 48.9147 13.4447 48.644 12.7354 48.644C12.0261 48.644 11.4614 48.9147 11.0414 49.456C10.6214 49.9973 10.4114 50.7533 10.4114 51.724C10.4114 52.6853 10.6214 53.432 11.0414 53.964C11.4614 54.496 12.0261 54.762 12.7354 54.762ZM17.1173 55V54.636L18.2933 54.496C18.3026 54.1413 18.3073 53.7353 18.3073 53.278C18.3166 52.8113 18.3213 52.4053 18.3213 52.06V51.388C18.3213 50.52 18.3073 49.764 18.2793 49.12L17.0473 49.064V48.7L18.7553 48.252L18.9233 48.364L18.9933 49.652C19.432 49.1573 19.88 48.7933 20.3373 48.56C20.804 48.3267 21.252 48.21 21.6813 48.21C22.232 48.21 22.6566 48.3967 22.9553 48.77C23.254 49.1433 23.4033 49.778 23.4033 50.674V52.06C23.4033 52.4053 23.4033 52.8113 23.4033 53.278C23.4126 53.7353 23.422 54.1413 23.4313 54.496L24.5093 54.636V55H21.5133V54.636L22.6893 54.496C22.6986 54.1413 22.7033 53.7353 22.7033 53.278C22.7126 52.8113 22.7173 52.4053 22.7173 52.06V50.716C22.7173 50.0253 22.6006 49.54 22.3673 49.26C22.1433 48.98 21.826 48.84 21.4153 48.84C21.098 48.84 20.7386 48.9287 20.3373 49.106C19.9453 49.274 19.502 49.6147 19.0073 50.128V52.06C19.0073 52.4053 19.0073 52.8113 19.0073 53.278C19.0166 53.7353 19.026 54.1413 19.0353 54.496L20.1133 54.636V55H17.1173ZM27.7925 55.182C27.4005 55.182 27.0458 55.14 26.7285 55.056C26.4205 54.972 26.0985 54.8553 25.7625 54.706L25.7065 53.25H26.1965L26.4205 54.482C26.6072 54.5753 26.8125 54.6453 27.0365 54.692C27.2605 54.7387 27.5218 54.762 27.8205 54.762C28.4272 54.762 28.8798 54.6407 29.1785 54.398C29.4772 54.146 29.6265 53.8333 29.6265 53.46C29.6265 53.1333 29.5192 52.8673 29.3045 52.662C29.0898 52.4567 28.7212 52.2607 28.1985 52.074L27.5405 51.836C27.0365 51.6493 26.6305 51.416 26.3225 51.136C26.0238 50.856 25.8745 50.4827 25.8745 50.016C25.8745 49.512 26.0658 49.0873 26.4485 48.742C26.8405 48.3873 27.4005 48.21 28.1285 48.21C28.5112 48.21 28.8425 48.2613 29.1225 48.364C29.4025 48.4573 29.7012 48.5973 30.0185 48.784L29.9765 50.1H29.5145L29.3605 48.98C29.1458 48.8493 28.9312 48.7607 28.7165 48.714C28.5112 48.6673 28.3012 48.644 28.0865 48.644C27.5732 48.644 27.1858 48.7607 26.9245 48.994C26.6725 49.218 26.5465 49.5027 26.5465 49.848C26.5465 50.1933 26.6538 50.4593 26.8685 50.646C27.0925 50.8327 27.4425 51.0147 27.9185 51.192L28.5065 51.416C29.1692 51.6587 29.6312 51.9293 29.8925 52.228C30.1632 52.5173 30.2985 52.8767 30.2985 53.306C30.2985 53.6327 30.2052 53.9407 30.0185 54.23C29.8412 54.5193 29.5658 54.7527 29.1925 54.93C28.8285 55.098 28.3618 55.182 27.7925 55.182ZM34.4245 55.182C33.8085 55.182 33.3371 54.9907 33.0105 54.608C32.6931 54.2253 32.5391 53.5533 32.5485 52.592L32.5905 48.966L31.4425 48.826V48.448L33.1785 48.336L33.3045 48.49L33.2485 50.436V52.508C33.2485 53.264 33.3651 53.796 33.5985 54.104C33.8411 54.4027 34.1911 54.552 34.6485 54.552C35.0591 54.552 35.4558 54.4493 35.8385 54.244C36.2305 54.0293 36.5991 53.7213 36.9445 53.32L36.9725 48.952L35.8385 48.826V48.448L37.5605 48.336L37.6865 48.49L37.6445 50.436V54.51L38.6945 54.636V55L37.0005 55.098L36.9585 53.768C36.6131 54.1973 36.2258 54.5427 35.7965 54.804C35.3765 55.056 34.9191 55.182 34.4245 55.182ZM39.7686 55V54.636L41.0566 54.496C41.066 54.1227 41.0706 53.7167 41.0706 53.278C41.08 52.83 41.0846 52.424 41.0846 52.06V45.354L39.8526 45.298V44.934L41.6166 44.57L41.8126 44.682L41.7706 46.67V52.06C41.7706 52.424 41.7706 52.83 41.7706 53.278C41.78 53.7167 41.7893 54.1227 41.7986 54.496L43.0586 54.636V55H39.7686ZM46.4999 55.182C46.0052 55.182 45.6412 55.0467 45.4079 54.776C45.1746 54.5053 45.0579 54.104 45.0579 53.572C45.0579 53.3853 45.0579 53.2173 45.0579 53.068C45.0672 52.9187 45.0719 52.732 45.0719 52.508V48.896H43.6859V48.476L45.0859 48.364L45.3239 46.39H45.8419L45.7719 48.392H47.7459V48.896H45.7579V53.488C45.7579 53.9173 45.8372 54.2253 45.9959 54.412C46.1546 54.5987 46.3786 54.692 46.6679 54.692C46.8732 54.692 47.0506 54.6687 47.1999 54.622C47.3492 54.566 47.5126 54.4867 47.6899 54.384L47.8719 54.664C47.5266 55.0093 47.0692 55.182 46.4999 55.182ZM51.8917 55.182C51.3783 55.182 50.8837 55.0607 50.4077 54.818C49.941 54.566 49.5537 54.1833 49.2457 53.67C48.947 53.1567 48.7977 52.508 48.7977 51.724C48.7977 50.9307 48.947 50.2773 49.2457 49.764C49.5537 49.2413 49.941 48.854 50.4077 48.602C50.8837 48.3407 51.3783 48.21 51.8917 48.21C52.405 48.21 52.895 48.3407 53.3617 48.602C53.8377 48.854 54.2297 49.2413 54.5377 49.764C54.8457 50.2773 54.9997 50.9307 54.9997 51.724C54.9997 52.508 54.8457 53.1567 54.5377 53.67C54.2297 54.1833 53.8377 54.566 53.3617 54.818C52.895 55.0607 52.405 55.182 51.8917 55.182ZM51.8917 54.762C52.601 54.762 53.1657 54.496 53.5857 53.964C54.0057 53.432 54.2157 52.6853 54.2157 51.724C54.2157 50.7533 54.0057 49.9973 53.5857 49.456C53.1657 48.9147 52.601 48.644 51.8917 48.644C51.1823 48.644 50.6177 48.9147 50.1977 49.456C49.7777 49.9973 49.5677 50.7533 49.5677 51.724C49.5677 52.6853 49.7777 53.432 50.1977 53.964C50.6177 54.496 51.1823 54.762 51.8917 54.762ZM56.2875 55V54.636L57.4495 54.496C57.4589 54.1413 57.4635 53.7353 57.4635 53.278C57.4729 52.8113 57.4775 52.4053 57.4775 52.06V51.388C57.4775 50.52 57.4635 49.764 57.4355 49.12L56.2035 49.064V48.7L57.9115 48.252L58.0795 48.364L58.1635 50.114C58.3782 49.554 58.6862 49.0967 59.0875 48.742C59.4982 48.3873 59.9275 48.21 60.3755 48.21C60.5995 48.21 60.8002 48.252 60.9775 48.336C61.1549 48.42 61.2762 48.518 61.3415 48.63C61.3415 49.0687 61.1455 49.288 60.7535 49.288C60.6135 49.288 60.4829 49.2553 60.3615 49.19C60.2495 49.1247 60.1282 49.036 59.9975 48.924L59.8435 48.784C59.4795 48.9333 59.1575 49.1807 58.8775 49.526C58.6069 49.862 58.3689 50.2913 58.1635 50.814V52.06C58.1635 52.4053 58.1635 52.8113 58.1635 53.278C58.1729 53.7353 58.1822 54.1413 58.1915 54.496L59.4515 54.636V55H56.2875ZM62.0434 55V54.636L63.2194 54.496C63.2287 54.1413 63.2334 53.7353 63.2334 53.278C63.2427 52.8113 63.2474 52.4053 63.2474 52.06V51.388C63.2474 50.9773 63.2474 50.59 63.2474 50.226C63.2474 49.862 63.2381 49.4933 63.2194 49.12L61.9734 49.064V48.7L63.7934 48.252L63.9614 48.364L63.9334 50.1V52.06C63.9334 52.4053 63.9334 52.8113 63.9334 53.278C63.9427 53.7353 63.9521 54.1413 63.9614 54.496L65.0394 54.636V55H62.0434ZM63.5274 46.222C63.3501 46.222 63.1961 46.166 63.0654 46.054C62.9441 45.942 62.8834 45.7927 62.8834 45.606C62.8834 45.41 62.9441 45.256 63.0654 45.144C63.1961 45.032 63.3501 44.976 63.5274 44.976C63.7047 44.976 63.8541 45.032 63.9754 45.144C64.1061 45.256 64.1714 45.41 64.1714 45.606C64.1714 45.7927 64.1061 45.942 63.9754 46.054C63.8541 46.166 63.7047 46.222 63.5274 46.222ZM71.5463 55.168C71.229 55.168 70.9817 55.056 70.8043 54.832C70.627 54.608 70.515 54.2953 70.4683 53.894C70.0577 54.3233 69.6843 54.6453 69.3483 54.86C69.0123 55.0747 68.6203 55.182 68.1723 55.182C67.6683 55.182 67.2437 55.0373 66.8983 54.748C66.5623 54.4587 66.3943 54.0433 66.3943 53.502C66.3943 53.0353 66.5577 52.6387 66.8843 52.312C67.211 51.976 67.771 51.6727 68.5643 51.402C68.863 51.2993 69.1757 51.206 69.5023 51.122C69.829 51.0287 70.1463 50.9493 70.4543 50.884V50.492C70.4543 49.9973 70.3983 49.6193 70.2863 49.358C70.1743 49.0873 70.0017 48.9007 69.7683 48.798C69.5443 48.6953 69.2597 48.644 68.9143 48.644C68.7183 48.644 68.5223 48.6627 68.3263 48.7C68.1397 48.7373 67.9483 48.8073 67.7523 48.91L67.4863 49.806C67.4023 50.0953 67.239 50.24 66.9963 50.24C66.7537 50.24 66.609 50.1093 66.5623 49.848C66.7023 49.3253 66.9917 48.924 67.4303 48.644C67.8783 48.3547 68.4197 48.21 69.0543 48.21C69.745 48.21 70.263 48.3827 70.6083 48.728C70.963 49.064 71.1403 49.6193 71.1403 50.394V53.488C71.1403 53.9453 71.1917 54.258 71.2943 54.426C71.4063 54.594 71.565 54.678 71.7703 54.678C71.9477 54.678 72.139 54.5893 72.3443 54.412L72.5403 54.65C72.279 54.9953 71.9477 55.168 71.5463 55.168ZM67.1223 53.362C67.1223 53.7633 67.239 54.0713 67.4723 54.286C67.715 54.4913 68.0323 54.594 68.4243 54.594C68.7323 54.594 69.031 54.5147 69.3203 54.356C69.619 54.188 69.997 53.894 70.4543 53.474V51.248C70.1557 51.3133 69.8477 51.3973 69.5303 51.5C69.213 51.5933 68.933 51.6867 68.6903 51.78C68.093 52.004 67.6823 52.2513 67.4583 52.522C67.2343 52.7833 67.1223 53.0633 67.1223 53.362ZM80.647 48.742C80.3297 48.742 80.003 48.8167 79.667 48.966C79.3403 49.106 78.9903 49.3627 78.617 49.736V53.754C78.953 54.09 79.275 54.328 79.583 54.468C79.9003 54.5987 80.2363 54.664 80.591 54.664C80.983 54.664 81.3423 54.5613 81.669 54.356C81.9957 54.1507 82.257 53.8287 82.453 53.39C82.6583 52.9513 82.761 52.382 82.761 51.682C82.761 50.7207 82.5603 49.9927 82.159 49.498C81.767 48.994 81.263 48.742 80.647 48.742ZM80.689 55.182C80.3437 55.182 79.989 55.1167 79.625 54.986C79.261 54.846 78.9157 54.5847 78.589 54.202V55.448C78.589 55.812 78.589 56.2133 78.589 56.652C78.5983 57.1 78.6077 57.5153 78.617 57.898L79.989 58.038V58.402H76.685V58.038L77.889 57.898C77.8983 57.5247 77.903 57.114 77.903 56.666C77.9123 56.2273 77.917 55.826 77.917 55.462V51.416C77.917 50.5293 77.903 49.764 77.875 49.12L76.657 49.064V48.7L78.365 48.252L78.533 48.364L78.575 49.344C78.9203 48.9333 79.289 48.644 79.681 48.476C80.073 48.2987 80.4557 48.21 80.829 48.21C81.361 48.21 81.8277 48.3547 82.229 48.644C82.6303 48.924 82.943 49.3207 83.167 49.834C83.4003 50.3473 83.517 50.9447 83.517 51.626C83.517 52.3447 83.3957 52.9747 83.153 53.516C82.9197 54.048 82.5883 54.4587 82.159 54.748C81.739 55.0373 81.249 55.182 80.689 55.182ZM90.0991 55.168C89.7817 55.168 89.5344 55.056 89.3571 54.832C89.1797 54.608 89.0677 54.2953 89.0211 53.894C88.6104 54.3233 88.2371 54.6453 87.9011 54.86C87.5651 55.0747 87.1731 55.182 86.7251 55.182C86.2211 55.182 85.7964 55.0373 85.4511 54.748C85.1151 54.4587 84.9471 54.0433 84.9471 53.502C84.9471 53.0353 85.1104 52.6387 85.4371 52.312C85.7637 51.976 86.3237 51.6727 87.1171 51.402C87.4157 51.2993 87.7284 51.206 88.0551 51.122C88.3817 51.0287 88.6991 50.9493 89.0071 50.884V50.492C89.0071 49.9973 88.9511 49.6193 88.8391 49.358C88.7271 49.0873 88.5544 48.9007 88.3211 48.798C88.0971 48.6953 87.8124 48.644 87.4671 48.644C87.2711 48.644 87.0751 48.6627 86.8791 48.7C86.6924 48.7373 86.5011 48.8073 86.3051 48.91L86.0391 49.806C85.9551 50.0953 85.7917 50.24 85.5491 50.24C85.3064 50.24 85.1617 50.1093 85.1151 49.848C85.2551 49.3253 85.5444 48.924 85.9831 48.644C86.4311 48.3547 86.9724 48.21 87.6071 48.21C88.2977 48.21 88.8157 48.3827 89.1611 48.728C89.5157 49.064 89.6931 49.6193 89.6931 50.394V53.488C89.6931 53.9453 89.7444 54.258 89.8471 54.426C89.9591 54.594 90.1177 54.678 90.3231 54.678C90.5004 54.678 90.6917 54.5893 90.8971 54.412L91.0931 54.65C90.8317 54.9953 90.5004 55.168 90.0991 55.168ZM85.6751 53.362C85.6751 53.7633 85.7917 54.0713 86.0251 54.286C86.2677 54.4913 86.5851 54.594 86.9771 54.594C87.2851 54.594 87.5837 54.5147 87.8731 54.356C88.1717 54.188 88.5497 53.894 89.0071 53.474V51.248C88.7084 51.3133 88.4004 51.3973 88.0831 51.5C87.7657 51.5933 87.4857 51.6867 87.2431 51.78C86.6457 52.004 86.2351 52.2513 86.0111 52.522C85.7871 52.7833 85.6751 53.0633 85.6751 53.362ZM91.8891 55V54.636L93.0511 54.496C93.0604 54.1413 93.0651 53.7353 93.0651 53.278C93.0744 52.8113 93.0791 52.4053 93.0791 52.06V51.388C93.0791 50.52 93.0651 49.764 93.0371 49.12L91.8051 49.064V48.7L93.5131 48.252L93.6811 48.364L93.7651 50.114C93.9798 49.554 94.2878 49.0967 94.6891 48.742C95.0998 48.3873 95.5291 48.21 95.9771 48.21C96.2011 48.21 96.4018 48.252 96.5791 48.336C96.7564 48.42 96.8778 48.518 96.9431 48.63C96.9431 49.0687 96.7471 49.288 96.3551 49.288C96.2151 49.288 96.0844 49.2553 95.9631 49.19C95.8511 49.1247 95.7298 49.036 95.5991 48.924L95.4451 48.784C95.0811 48.9333 94.7591 49.1807 94.4791 49.526C94.2084 49.862 93.9704 50.2913 93.7651 50.814V52.06C93.7651 52.4053 93.7651 52.8113 93.7651 53.278C93.7744 53.7353 93.7838 54.1413 93.7931 54.496L95.0531 54.636V55H91.8891ZM102.8 55.168C102.483 55.168 102.236 55.056 102.058 54.832C101.881 54.608 101.769 54.2953 101.722 53.894C101.312 54.3233 100.938 54.6453 100.602 54.86C100.266 55.0747 99.8743 55.182 99.4263 55.182C98.9223 55.182 98.4976 55.0373 98.1523 54.748C97.8163 54.4587 97.6483 54.0433 97.6483 53.502C97.6483 53.0353 97.8116 52.6387 98.1383 52.312C98.4649 51.976 99.0249 51.6727 99.8183 51.402C100.117 51.2993 100.43 51.206 100.756 51.122C101.083 51.0287 101.4 50.9493 101.708 50.884V50.492C101.708 49.9973 101.652 49.6193 101.54 49.358C101.428 49.0873 101.256 48.9007 101.022 48.798C100.798 48.6953 100.514 48.644 100.168 48.644C99.9723 48.644 99.7763 48.6627 99.5803 48.7C99.3936 48.7373 99.2023 48.8073 99.0063 48.91L98.7403 49.806C98.6563 50.0953 98.4929 50.24 98.2503 50.24C98.0076 50.24 97.8629 50.1093 97.8163 49.848C97.9563 49.3253 98.2456 48.924 98.6843 48.644C99.1323 48.3547 99.6736 48.21 100.308 48.21C100.999 48.21 101.517 48.3827 101.862 48.728C102.217 49.064 102.394 49.6193 102.394 50.394V53.488C102.394 53.9453 102.446 54.258 102.548 54.426C102.66 54.594 102.819 54.678 103.024 54.678C103.202 54.678 103.393 54.5893 103.598 54.412L103.794 54.65C103.533 54.9953 103.202 55.168 102.8 55.168ZM98.3763 53.362C98.3763 53.7633 98.4929 54.0713 98.7263 54.286C98.9689 54.4913 99.2863 54.594 99.6783 54.594C99.9863 54.594 100.285 54.5147 100.574 54.356C100.873 54.188 101.251 53.894 101.708 53.474V51.248C101.41 51.3133 101.102 51.3973 100.784 51.5C100.467 51.5933 100.187 51.6867 99.9443 51.78C99.3469 52.004 98.9363 52.2513 98.7123 52.522C98.4883 52.7833 98.3763 53.0633 98.3763 53.362ZM113.847 45.956V45.564H117.095V45.956L115.849 46.082V55.098H115.499L109.731 46.838V54.482L111.271 54.608V55H108.009V54.608L109.241 54.482V46.138L109.171 46.04L107.953 45.956V45.564H109.773L115.373 53.642V46.082L113.847 45.956ZM121.248 48.644C120.856 48.644 120.492 48.7513 120.156 48.966C119.829 49.1713 119.558 49.4653 119.344 49.848C119.138 50.2307 119.012 50.6833 118.966 51.206H122.62C122.816 51.206 122.946 51.1547 123.012 51.052C123.086 50.9493 123.124 50.7953 123.124 50.59C123.124 50.254 123.049 49.9367 122.9 49.638C122.75 49.3393 122.536 49.1013 122.256 48.924C121.976 48.7373 121.64 48.644 121.248 48.644ZM121.304 55.182C120.744 55.182 120.23 55.056 119.764 54.804C119.297 54.5427 118.919 54.1553 118.63 53.642C118.35 53.1287 118.21 52.4847 118.21 51.71C118.21 51.0007 118.35 50.3847 118.63 49.862C118.919 49.3393 119.297 48.9333 119.764 48.644C120.23 48.3547 120.734 48.21 121.276 48.21C121.789 48.21 122.237 48.3267 122.62 48.56C123.002 48.784 123.296 49.092 123.502 49.484C123.716 49.876 123.824 50.324 123.824 50.828C123.824 50.996 123.814 51.1453 123.796 51.276C123.777 51.4067 123.754 51.5233 123.726 51.626L118.952 51.612C118.961 52.3027 119.078 52.872 119.302 53.32C119.535 53.7587 119.838 54.0853 120.212 54.3C120.594 54.5053 121.01 54.608 121.458 54.608C121.906 54.608 122.302 54.524 122.648 54.356C122.993 54.188 123.296 53.9593 123.558 53.67L123.782 53.866C123.52 54.2673 123.17 54.5893 122.732 54.832C122.302 55.0653 121.826 55.182 121.304 55.182ZM127.8 52.438C128.314 52.438 128.729 52.2607 129.046 51.906C129.364 51.542 129.522 51.0753 129.522 50.506C129.522 49.946 129.368 49.4933 129.06 49.148C128.752 48.7933 128.342 48.616 127.828 48.616C127.315 48.616 126.9 48.7933 126.582 49.148C126.274 49.5027 126.12 49.96 126.12 50.52C126.12 51.0893 126.274 51.5513 126.582 51.906C126.89 52.2607 127.296 52.438 127.8 52.438ZM127.814 52.83C127.432 52.83 127.082 52.7647 126.764 52.634C126.568 52.8487 126.419 53.0447 126.316 53.222C126.223 53.39 126.176 53.572 126.176 53.768C126.176 53.9733 126.26 54.1413 126.428 54.272C126.596 54.3933 126.881 54.454 127.282 54.454H129.228C129.872 54.454 130.362 54.5987 130.698 54.888C131.034 55.168 131.202 55.5787 131.202 56.12C131.202 56.5027 131.081 56.8667 130.838 57.212C130.605 57.5667 130.25 57.8513 129.774 58.066C129.298 58.29 128.696 58.402 127.968 58.402C127.035 58.402 126.326 58.234 125.84 57.898C125.355 57.562 125.112 57.128 125.112 56.596C125.112 56.2507 125.22 55.9427 125.434 55.672C125.649 55.4107 125.957 55.1773 126.358 54.972C125.826 54.8133 125.56 54.496 125.56 54.02C125.56 53.7493 125.635 53.4973 125.784 53.264C125.943 53.0307 126.176 52.774 126.484 52.494C126.158 52.3073 125.901 52.046 125.714 51.71C125.528 51.374 125.434 50.9773 125.434 50.52C125.434 49.8107 125.658 49.2507 126.106 48.84C126.554 48.42 127.128 48.21 127.828 48.21C128.463 48.21 128.99 48.378 129.41 48.714L131.02 48.28L131.23 48.42V49.022H129.718C129.877 49.2087 129.998 49.428 130.082 49.68C130.166 49.932 130.208 50.212 130.208 50.52C130.208 51.2293 129.98 51.794 129.522 52.214C129.074 52.6247 128.505 52.83 127.814 52.83ZM125.812 56.456C125.812 56.9413 126.008 57.31 126.4 57.562C126.792 57.814 127.329 57.94 128.01 57.94C128.841 57.94 129.471 57.7767 129.9 57.45C130.33 57.1233 130.544 56.7313 130.544 56.274C130.544 55.9473 130.437 55.672 130.222 55.448C130.017 55.2333 129.639 55.126 129.088 55.126H127.38C127.259 55.126 127.128 55.1213 126.988 55.112C126.858 55.1027 126.732 55.0887 126.61 55.07C126.349 55.2753 126.148 55.4807 126.008 55.686C125.878 55.9007 125.812 56.1573 125.812 56.456ZM135.386 55.182C134.872 55.182 134.378 55.0607 133.902 54.818C133.435 54.566 133.048 54.1833 132.74 53.67C132.441 53.1567 132.292 52.508 132.292 51.724C132.292 50.9307 132.441 50.2773 132.74 49.764C133.048 49.2413 133.435 48.854 133.902 48.602C134.378 48.3407 134.872 48.21 135.386 48.21C135.899 48.21 136.389 48.3407 136.856 48.602C137.332 48.854 137.724 49.2413 138.032 49.764C138.34 50.2773 138.494 50.9307 138.494 51.724C138.494 52.508 138.34 53.1567 138.032 53.67C137.724 54.1833 137.332 54.566 136.856 54.818C136.389 55.0607 135.899 55.182 135.386 55.182ZM135.386 54.762C136.095 54.762 136.66 54.496 137.08 53.964C137.5 53.432 137.71 52.6853 137.71 51.724C137.71 50.7533 137.5 49.9973 137.08 49.456C136.66 48.9147 136.095 48.644 135.386 48.644C134.676 48.644 134.112 48.9147 133.692 49.456C133.272 49.9973 133.062 50.7533 133.062 51.724C133.062 52.6853 133.272 53.432 133.692 53.964C134.112 54.496 134.676 54.762 135.386 54.762ZM134.798 46.964C135.031 46.628 135.26 46.2967 135.484 45.97C135.717 45.634 135.936 45.326 136.142 45.046C136.272 44.8593 136.38 44.7333 136.464 44.668C136.548 44.5933 136.636 44.556 136.73 44.556C136.823 44.556 136.902 44.5887 136.968 44.654C137.042 44.71 137.08 44.794 137.08 44.906C137.08 44.99 137.047 45.0787 136.982 45.172C136.916 45.2653 136.804 45.3913 136.646 45.55C136.412 45.7833 136.156 46.04 135.876 46.32C135.605 46.5907 135.32 46.866 135.022 47.146L134.798 46.964ZM142.96 55.182C142.344 55.182 141.802 55.0373 141.336 54.748C140.869 54.4587 140.505 54.0527 140.244 53.53C139.982 53.0073 139.852 52.4007 139.852 51.71C139.852 50.9727 140.001 50.3473 140.3 49.834C140.608 49.3113 141.004 48.91 141.49 48.63C141.984 48.35 142.507 48.21 143.058 48.21C143.599 48.21 144.084 48.3547 144.514 48.644C144.943 48.9333 145.237 49.3253 145.396 49.82C145.34 50.072 145.19 50.198 144.948 50.198C144.798 50.198 144.686 50.1607 144.612 50.086C144.537 50.002 144.476 49.8993 144.43 49.778L144.122 48.896C143.944 48.8027 143.767 48.7373 143.59 48.7C143.412 48.6627 143.235 48.644 143.058 48.644C142.591 48.644 142.171 48.7653 141.798 49.008C141.424 49.2507 141.13 49.596 140.916 50.044C140.701 50.492 140.594 51.024 140.594 51.64C140.594 52.2373 140.701 52.76 140.916 53.208C141.13 53.656 141.424 54.0013 141.798 54.244C142.18 54.4867 142.61 54.608 143.086 54.608C143.935 54.608 144.635 54.2767 145.186 53.614L145.424 53.768C145.181 54.1973 144.854 54.5427 144.444 54.804C144.033 55.056 143.538 55.182 142.96 55.182ZM146.604 55V54.636L147.78 54.496C147.789 54.1413 147.794 53.7353 147.794 53.278C147.803 52.8113 147.808 52.4053 147.808 52.06V51.388C147.808 50.9773 147.808 50.59 147.808 50.226C147.808 49.862 147.799 49.4933 147.78 49.12L146.534 49.064V48.7L148.354 48.252L148.522 48.364L148.494 50.1V52.06C148.494 52.4053 148.494 52.8113 148.494 53.278C148.503 53.7353 148.513 54.1413 148.522 54.496L149.6 54.636V55H146.604ZM148.088 46.222C147.911 46.222 147.757 46.166 147.626 46.054C147.505 45.942 147.444 45.7927 147.444 45.606C147.444 45.41 147.505 45.256 147.626 45.144C147.757 45.032 147.911 44.976 148.088 44.976C148.265 44.976 148.415 45.032 148.536 45.144C148.667 45.256 148.732 45.41 148.732 45.606C148.732 45.7927 148.667 45.942 148.536 46.054C148.415 46.166 148.265 46.222 148.088 46.222ZM154.007 55.182C153.494 55.182 152.999 55.0607 152.523 54.818C152.056 54.566 151.669 54.1833 151.361 53.67C151.062 53.1567 150.913 52.508 150.913 51.724C150.913 50.9307 151.062 50.2773 151.361 49.764C151.669 49.2413 152.056 48.854 152.523 48.602C152.999 48.3407 153.494 48.21 154.007 48.21C154.52 48.21 155.01 48.3407 155.477 48.602C155.953 48.854 156.345 49.2413 156.653 49.764C156.961 50.2773 157.115 50.9307 157.115 51.724C157.115 52.508 156.961 53.1567 156.653 53.67C156.345 54.1833 155.953 54.566 155.477 54.818C155.01 55.0607 154.52 55.182 154.007 55.182ZM154.007 54.762C154.716 54.762 155.281 54.496 155.701 53.964C156.121 53.432 156.331 52.6853 156.331 51.724C156.331 50.7533 156.121 49.9973 155.701 49.456C155.281 48.9147 154.716 48.644 154.007 48.644C153.298 48.644 152.733 48.9147 152.313 49.456C151.893 49.9973 151.683 50.7533 151.683 51.724C151.683 52.6853 151.893 53.432 152.313 53.964C152.733 54.496 153.298 54.762 154.007 54.762ZM160.615 55.182C160.223 55.182 159.868 55.14 159.551 55.056C159.243 54.972 158.921 54.8553 158.585 54.706L158.529 53.25H159.019L159.243 54.482C159.429 54.5753 159.635 54.6453 159.859 54.692C160.083 54.7387 160.344 54.762 160.643 54.762C161.249 54.762 161.702 54.6407 162.001 54.398C162.299 54.146 162.449 53.8333 162.449 53.46C162.449 53.1333 162.341 52.8673 162.127 52.662C161.912 52.4567 161.543 52.2607 161.021 52.074L160.363 51.836C159.859 51.6493 159.453 51.416 159.145 51.136C158.846 50.856 158.697 50.4827 158.697 50.016C158.697 49.512 158.888 49.0873 159.271 48.742C159.663 48.3873 160.223 48.21 160.951 48.21C161.333 48.21 161.665 48.2613 161.945 48.364C162.225 48.4573 162.523 48.5973 162.841 48.784L162.799 50.1H162.337L162.183 48.98C161.968 48.8493 161.753 48.7607 161.539 48.714C161.333 48.6673 161.123 48.644 160.909 48.644C160.395 48.644 160.008 48.7607 159.747 48.994C159.495 49.218 159.369 49.5027 159.369 49.848C159.369 50.1933 159.476 50.4593 159.691 50.646C159.915 50.8327 160.265 51.0147 160.741 51.192L161.329 51.416C161.991 51.6587 162.453 51.9293 162.715 52.228C162.985 52.5173 163.121 52.8767 163.121 53.306C163.121 53.6327 163.027 53.9407 162.841 54.23C162.663 54.5193 162.388 54.7527 162.015 54.93C161.651 55.098 161.184 55.182 160.615 55.182ZM170.133 50.338C170.133 51.1313 170.133 51.8733 170.133 52.564C170.143 53.2453 170.152 53.908 170.161 54.552H171.421C172.765 54.552 173.773 54.174 174.445 53.418C175.117 52.6527 175.453 51.612 175.453 50.296C175.453 48.9053 175.122 47.846 174.459 47.118C173.797 46.3807 172.84 46.012 171.589 46.012H170.161C170.152 46.6467 170.143 47.2953 170.133 47.958C170.133 48.6207 170.133 49.302 170.133 50.002V50.338ZM167.935 45.956V45.564H171.743C173.162 45.564 174.277 45.97 175.089 46.782C175.911 47.594 176.321 48.7653 176.321 50.296C176.321 51.2667 176.13 52.1067 175.747 52.816C175.365 53.516 174.814 54.0573 174.095 54.44C173.386 54.8133 172.541 55 171.561 55H167.935V54.608L169.363 54.496C169.373 53.8613 169.377 53.208 169.377 52.536C169.377 51.8547 169.377 51.122 169.377 50.338V50.002C169.377 49.3113 169.377 48.644 169.377 48C169.377 47.3467 169.373 46.7027 169.363 46.068L167.935 45.956ZM177.721 55V54.636L178.897 54.496C178.906 54.1413 178.911 53.7353 178.911 53.278C178.92 52.8113 178.925 52.4053 178.925 52.06V51.388C178.925 50.9773 178.925 50.59 178.925 50.226C178.925 49.862 178.916 49.4933 178.897 49.12L177.651 49.064V48.7L179.471 48.252L179.639 48.364L179.611 50.1V52.06C179.611 52.4053 179.611 52.8113 179.611 53.278C179.62 53.7353 179.63 54.1413 179.639 54.496L180.717 54.636V55H177.721ZM179.205 46.222C179.028 46.222 178.874 46.166 178.743 46.054C178.622 45.942 178.561 45.7927 178.561 45.606C178.561 45.41 178.622 45.256 178.743 45.144C178.874 45.032 179.028 44.976 179.205 44.976C179.382 44.976 179.532 45.032 179.653 45.144C179.784 45.256 179.849 45.41 179.849 45.606C179.849 45.7927 179.784 45.942 179.653 46.054C179.532 46.166 179.382 46.222 179.205 46.222ZM184.648 52.438C185.161 52.438 185.577 52.2607 185.894 51.906C186.211 51.542 186.37 51.0753 186.37 50.506C186.37 49.946 186.216 49.4933 185.908 49.148C185.6 48.7933 185.189 48.616 184.676 48.616C184.163 48.616 183.747 48.7933 183.43 49.148C183.122 49.5027 182.968 49.96 182.968 50.52C182.968 51.0893 183.122 51.5513 183.43 51.906C183.738 52.2607 184.144 52.438 184.648 52.438ZM184.662 52.83C184.279 52.83 183.929 52.7647 183.612 52.634C183.416 52.8487 183.267 53.0447 183.164 53.222C183.071 53.39 183.024 53.572 183.024 53.768C183.024 53.9733 183.108 54.1413 183.276 54.272C183.444 54.3933 183.729 54.454 184.13 54.454H186.076C186.72 54.454 187.21 54.5987 187.546 54.888C187.882 55.168 188.05 55.5787 188.05 56.12C188.05 56.5027 187.929 56.8667 187.686 57.212C187.453 57.5667 187.098 57.8513 186.622 58.066C186.146 58.29 185.544 58.402 184.816 58.402C183.883 58.402 183.173 58.234 182.688 57.898C182.203 57.562 181.96 57.128 181.96 56.596C181.96 56.2507 182.067 55.9427 182.282 55.672C182.497 55.4107 182.805 55.1773 183.206 54.972C182.674 54.8133 182.408 54.496 182.408 54.02C182.408 53.7493 182.483 53.4973 182.632 53.264C182.791 53.0307 183.024 52.774 183.332 52.494C183.005 52.3073 182.749 52.046 182.562 51.71C182.375 51.374 182.282 50.9773 182.282 50.52C182.282 49.8107 182.506 49.2507 182.954 48.84C183.402 48.42 183.976 48.21 184.676 48.21C185.311 48.21 185.838 48.378 186.258 48.714L187.868 48.28L188.078 48.42V49.022H186.566C186.725 49.2087 186.846 49.428 186.93 49.68C187.014 49.932 187.056 50.212 187.056 50.52C187.056 51.2293 186.827 51.794 186.37 52.214C185.922 52.6247 185.353 52.83 184.662 52.83ZM182.66 56.456C182.66 56.9413 182.856 57.31 183.248 57.562C183.64 57.814 184.177 57.94 184.858 57.94C185.689 57.94 186.319 57.7767 186.748 57.45C187.177 57.1233 187.392 56.7313 187.392 56.274C187.392 55.9473 187.285 55.672 187.07 55.448C186.865 55.2333 186.487 55.126 185.936 55.126H184.228C184.107 55.126 183.976 55.1213 183.836 55.112C183.705 55.1027 183.579 55.0887 183.458 55.07C183.197 55.2753 182.996 55.4807 182.856 55.686C182.725 55.9007 182.66 56.1573 182.66 56.456ZM189.096 55V54.636L190.272 54.496C190.281 54.1413 190.286 53.7353 190.286 53.278C190.295 52.8113 190.3 52.4053 190.3 52.06V51.388C190.3 50.9773 190.3 50.59 190.3 50.226C190.3 49.862 190.291 49.4933 190.272 49.12L189.026 49.064V48.7L190.846 48.252L191.014 48.364L190.986 50.1V52.06C190.986 52.4053 190.986 52.8113 190.986 53.278C190.995 53.7353 191.005 54.1413 191.014 54.496L192.092 54.636V55H189.096ZM190.58 46.222C190.403 46.222 190.249 46.166 190.118 46.054C189.997 45.942 189.936 45.7927 189.936 45.606C189.936 45.41 189.997 45.256 190.118 45.144C190.249 45.032 190.403 44.976 190.58 44.976C190.757 44.976 190.907 45.032 191.028 45.144C191.159 45.256 191.224 45.41 191.224 45.606C191.224 45.7927 191.159 45.942 191.028 46.054C190.907 46.166 190.757 46.222 190.58 46.222ZM195.701 55.182C195.206 55.182 194.842 55.0467 194.609 54.776C194.376 54.5053 194.259 54.104 194.259 53.572C194.259 53.3853 194.259 53.2173 194.259 53.068C194.268 52.9187 194.273 52.732 194.273 52.508V48.896H192.887V48.476L194.287 48.364L194.525 46.39H195.043L194.973 48.392H196.947V48.896H194.959V53.488C194.959 53.9173 195.038 54.2253 195.197 54.412C195.356 54.5987 195.58 54.692 195.869 54.692C196.074 54.692 196.252 54.6687 196.401 54.622C196.55 54.566 196.714 54.4867 196.891 54.384L197.073 54.664C196.728 55.0093 196.27 55.182 195.701 55.182ZM203.193 55.168C202.875 55.168 202.628 55.056 202.451 54.832C202.273 54.608 202.161 54.2953 202.115 53.894C201.704 54.3233 201.331 54.6453 200.995 54.86C200.659 55.0747 200.267 55.182 199.819 55.182C199.315 55.182 198.89 55.0373 198.545 54.748C198.209 54.4587 198.041 54.0433 198.041 53.502C198.041 53.0353 198.204 52.6387 198.531 52.312C198.857 51.976 199.417 51.6727 200.211 51.402C200.509 51.2993 200.822 51.206 201.149 51.122C201.475 51.0287 201.793 50.9493 202.101 50.884V50.492C202.101 49.9973 202.045 49.6193 201.933 49.358C201.821 49.0873 201.648 48.9007 201.415 48.798C201.191 48.6953 200.906 48.644 200.561 48.644C200.365 48.644 200.169 48.6627 199.973 48.7C199.786 48.7373 199.595 48.8073 199.399 48.91L199.133 49.806C199.049 50.0953 198.885 50.24 198.643 50.24C198.4 50.24 198.255 50.1093 198.209 49.848C198.349 49.3253 198.638 48.924 199.077 48.644C199.525 48.3547 200.066 48.21 200.701 48.21C201.391 48.21 201.909 48.3827 202.255 48.728C202.609 49.064 202.787 49.6193 202.787 50.394V53.488C202.787 53.9453 202.838 54.258 202.941 54.426C203.053 54.594 203.211 54.678 203.417 54.678C203.594 54.678 203.785 54.5893 203.991 54.412L204.187 54.65C203.925 54.9953 203.594 55.168 203.193 55.168ZM198.769 53.362C198.769 53.7633 198.885 54.0713 199.119 54.286C199.361 54.4913 199.679 54.594 200.071 54.594C200.379 54.594 200.677 54.5147 200.967 54.356C201.265 54.188 201.643 53.894 202.101 53.474V51.248C201.802 51.3133 201.494 51.3973 201.177 51.5C200.859 51.5933 200.579 51.6867 200.337 51.78C199.739 52.004 199.329 52.2513 199.105 52.522C198.881 52.7833 198.769 53.0633 198.769 53.362ZM204.983 55V54.636L206.159 54.496C206.168 54.1413 206.173 53.7353 206.173 53.278C206.182 52.8113 206.187 52.4053 206.187 52.06V51.388C206.187 50.9773 206.187 50.59 206.187 50.226C206.187 49.862 206.178 49.4933 206.159 49.12L204.913 49.064V48.7L206.733 48.252L206.901 48.364L206.873 50.1V52.06C206.873 52.4053 206.873 52.8113 206.873 53.278C206.882 53.7353 206.892 54.1413 206.901 54.496L207.979 54.636V55H204.983ZM206.467 46.222C206.29 46.222 206.136 46.166 206.005 46.054C205.884 45.942 205.823 45.7927 205.823 45.606C205.823 45.41 205.884 45.256 206.005 45.144C206.136 45.032 206.29 44.976 206.467 44.976C206.644 44.976 206.794 45.032 206.915 45.144C207.046 45.256 207.111 45.41 207.111 45.606C207.111 45.7927 207.046 45.942 206.915 46.054C206.794 46.166 206.644 46.222 206.467 46.222ZM211.406 55.182C211.014 55.182 210.659 55.14 210.342 55.056C210.034 54.972 209.712 54.8553 209.376 54.706L209.32 53.25H209.81L210.034 54.482C210.22 54.5753 210.426 54.6453 210.65 54.692C210.874 54.7387 211.135 54.762 211.434 54.762C212.04 54.762 212.493 54.6407 212.792 54.398C213.09 54.146 213.24 53.8333 213.24 53.46C213.24 53.1333 213.132 52.8673 212.918 52.662C212.703 52.4567 212.334 52.2607 211.812 52.074L211.154 51.836C210.65 51.6493 210.244 51.416 209.936 51.136C209.637 50.856 209.488 50.4827 209.488 50.016C209.488 49.512 209.679 49.0873 210.062 48.742C210.454 48.3873 211.014 48.21 211.742 48.21C212.124 48.21 212.456 48.2613 212.736 48.364C213.016 48.4573 213.314 48.5973 213.632 48.784L213.59 50.1H213.128L212.974 48.98C212.759 48.8493 212.544 48.7607 212.33 48.714C212.124 48.6673 211.914 48.644 211.7 48.644C211.186 48.644 210.799 48.7607 210.538 48.994C210.286 49.218 210.16 49.5027 210.16 49.848C210.16 50.1933 210.267 50.4593 210.482 50.646C210.706 50.8327 211.056 51.0147 211.532 51.192L212.12 51.416C212.782 51.6587 213.244 51.9293 213.506 52.228C213.776 52.5173 213.912 52.8767 213.912 53.306C213.912 53.6327 213.818 53.9407 213.632 54.23C213.454 54.5193 213.179 54.7527 212.806 54.93C212.442 55.098 211.975 55.182 211.406 55.182Z" fill="white"/>
</svg>
